<svg xmlns:dc="http://purl.org/dc/elements/1.1/" xmlns:cc="http://creativecommons.org/ns#" xmlns:rdf="http://www.w3.org/1999/02/22-rdf-syntax-ns#" xmlns:svg="http://www.w3.org/2000/svg" xmlns="http://www.w3.org/2000/svg" xml:space="preserve" id="svg2" version="1.1" viewBox="0 0 350 200"><metadata id="metadata8"><rdf:RDF><cc:Work rdf:about=""><dc:format>image/svg+xml</dc:format><dc:type rdf:resource="http://purl.org/dc/dcmitype/StillImage"/></cc:Work></rdf:RDF></metadata><defs id="defs6"><clipPath id="clipPath24" clipPathUnits="userSpaceOnUse"><path id="path22" d="M 0,0 H 612 V 803.25 H 0 Z"/></clipPath></defs><g transform="matrix(1.3333333,0,0,-1.3333333,0,1071)" id="g10"><g id="g12"/><g id="g14"><g transform="matrix(1.048304,0,0,1.048304,15.9375,803.25)" id="g16"/></g><g id="g18"><g clip-path="url(#clipPath24)" id="g20"><path id="path26" style="fill:#000000;fill-opacity:1;fill-rule:nonzero;stroke:none" d="m 25.47857,779.0828 c 0.003,-0.4401 -0.35135,-0.7993 -0.79144,-0.8023 -0.44009,-0.003 -0.79928,0.3514 -0.80228,0.7914 -0.0016,0.2375 0.0098,0.4324 0.04766,0.6188 0.01925,0.0948 0.03617,0.1921 0.12454,0.3451 0.04927,0.0853 0.12343,0.2097 0.32365,0.3202 0.21932,0.1209 0.59978,0.1135 0.81358,-0.0147 0.37743,-0.2264 0.49991,-0.7158 0.27356,-1.0933 -0.22635,-0.3774 -0.71582,-0.4999 -1.09325,-0.2735 -0.09852,0.0591 0.53423,-0.1133 0.38555,-0.1105 -0.14874,0.003 0.49144,0.1522 0.39036,0.0965 -0.09597,-0.053 0.24593,0.2107 0.2023,0.1615 -0.04109,-0.0464 0.10252,0.1482 0.08436,0.1167 -0.03328,-0.0576 0.05734,0.1325 0.05071,0.1119 -0.0057,-0.0176 0.0067,0.024 0.0065,0.023 -0.0039,-0.0192 -0.01693,-0.1296 -0.01583,-0.2908 m 0.09975,0.5389 c -0.02339,-0.4395 -0.39862,-0.7768 -0.8381,-0.7534 -0.43948,0.0234 -0.77678,0.3986 -0.75339,0.8381 7.9e-4,0.0149 0.0019,0.0286 0.0032,0.0413 0.0108,0.1038 0.02898,0.151 0.04201,0.1893 0.02366,0.0693 0.0428,0.1073 0.06118,0.1437 0.03564,0.0708 0.0014,0.0881 0.19617,0.2807 l 1.12071,-1.1331 c -0.07109,-0.0703 0.14898,0.2197 0.12779,0.1762 -0.02812,-0.0578 0.03249,0.0879 0.03186,0.0849 -2.9e-4,-0.001 -0.0037,-0.0209 -0.0068,-0.0521 -0.0095,-0.0953 -0.01406,-0.2601 -0.01656,-0.4604 -0.0053,-0.4239 -0.0036,-0.9712 -0.07351,-1.5534 -0.20843,-1.7367 -0.70212,-3.857 -1.1722,-5.92 -0.27079,-1.1884 -0.58951,-2.308 -0.81239,-3.2873 -0.34391,-1.511 -0.43354,-2.633 -0.43479,-3.5063 -0.0012,-0.8245 0.08713,-1.452 0.05191,-2.094 -0.02411,-0.4395 -0.39989,-0.7762 -0.83933,-0.7521 -0.43944,0.0241 -0.77614,0.3999 -0.75203,0.8394 0.02376,0.4329 -0.05562,1.091 -0.0543,2.009 0.0014,0.9781 0.10519,2.2349 0.47453,3.8577 0.23551,1.0347 0.55275,2.1478 0.81248,3.2877 0.46929,2.0595 0.95149,4.154 1.14372,5.7558 0.05568,0.4639 0.05689,0.9515 0.06228,1.3834 0.0026,0.2114 0.0052,0.4065 0.02425,0.598 0.0192,0.1934 -0.03284,0.4252 0.31242,0.7667 0.31291,0.3094 0.81746,0.3066 1.12693,-0.006 0.30947,-0.3129 0.30668,-0.8174 -0.0062,-1.1269 -0.0551,-0.0545 0.09193,0.1103 0.08045,0.0941 -0.02697,-0.0379 0.02929,0.0478 0.02589,0.0411 -0.0029,-0.006 0.03948,0.1043 0.0241,0.0592 -0.0091,-0.0266 0.04465,0.256 0.03467,0.1601 -0.0012,-0.0119 0.0038,0.053 0.0031,0.0389"/><path id="path28" style="fill:#000000;fill-opacity:1;fill-rule:nonzero;stroke:none" d="m 13.73387,778.6285 c -0.43524,-0.0653 -0.84096,0.2347 -0.90621,0.6699 -0.06524,0.4353 0.2347,0.841 0.66994,0.9062 0.37387,0.0561 1.35204,0.266 2.89546,0.4776 1.13858,0.1561 2.51409,0.2767 4.08158,0.4152 2.54512,0.225 5.45106,0.4321 8.10697,0.6133 2.5831,0.1762 4.7663,0.3142 5.91751,0.4049 0.43875,0.0346 0.82244,-0.2931 0.85701,-0.7318 0.03457,-0.4387 -0.29308,-0.8224 -0.73182,-0.857 -1.17728,-0.0928 -3.35455,-0.2302 -5.93422,-0.4062 -2.65146,-0.1808 -5.54953,-0.3875 -8.07511,-0.6107 -1.5652,-0.1384 -2.9244,-0.2585 -4.00545,-0.4067 -1.49485,-0.2049 -2.38321,-0.4009 -2.87566,-0.4747"/><path id="path30" style="fill:#000000;fill-opacity:1;fill-rule:nonzero;stroke:none" d="m 33.46482,777.5184 c -0.11171,-0.4257 -0.54735,-0.6803 -0.97304,-0.5686 -0.42569,0.1118 -0.68023,0.5474 -0.56852,0.9731 0.02048,0.078 0.04043,0.1559 0.10069,0.2712 0.033,0.0632 0.07731,0.1457 0.19024,0.2474 0.12481,0.1123 0.39054,0.2468 0.67663,0.2006 0.54229,-0.0877 0.59447,-0.4095 0.64151,-0.5246 0.0423,-0.1035 0.05755,-0.1766 0.07211,-0.2492 0.05767,-0.2875 0.0804,-0.6362 0.10453,-1.0976 0.05155,-0.9856 0.07375,-2.3352 0.08076,-3.7948 0.01173,-2.4418 -0.08678,-4.9318 -0.14922,-6.9536 -0.02986,-0.9669 -0.05082,-1.7926 -0.04317,-2.3974 0.0036,-0.2828 0.01429,-0.5071 0.02986,-0.6407 0.0068,-0.0584 0.005,-0.0562 0.0103,-0.0739 0.0041,-0.0139 -0.07548,0.1565 -0.04396,0.1003 0.0173,-0.0308 -0.12075,0.1598 -0.08129,0.1146 0.04168,-0.0476 -0.26822,0.2003 -0.18441,0.1516 0.38053,-0.2211 0.50977,-0.7089 0.28867,-1.0894 -0.2211,-0.3805 -0.70882,-0.5098 -1.08935,-0.2887 -0.66614,0.3871 -0.45673,0.6757 -0.483,0.9011 -0.02677,0.2297 -0.0365,0.4931 -0.04045,0.8049 -0.0083,0.6543 0.01374,1.4932 0.04381,2.4668 0.06267,2.0292 0.15999,4.5005 0.14848,6.8967 -0.0069,1.4461 -0.02959,2.7822 -0.0786,3.7193 -0.02261,0.4321 -0.05452,0.7623 -0.07558,0.8673 -0.0032,0.016 0.03696,-0.0934 0.01521,-0.0402 -0.01314,0.0322 0.15767,-0.2416 0.09536,-0.1621 -0.03403,0.0434 0.23256,-0.2034 0.15723,-0.1498 -0.0794,0.0565 0.46197,-0.1558 0.32694,-0.134 -0.13704,0.0222 0.51421,0.083 0.39916,0.0398 -0.0971,-0.0365 0.27694,0.1747 0.22341,0.13 -0.08743,-0.0731 0.18049,0.2194 0.154,0.1765 -0.03546,-0.0573 0.05605,0.1167 0.05062,0.1018 -0.0043,-0.0117 0.0035,0.0107 0.0011,0.002"/><path id="path32" style="fill:#000000;fill-opacity:1;fill-rule:nonzero;stroke:none" d="m 30.41232,766.4879 c -0.41453,-0.1478 -0.87041,0.0684 -1.01824,0.4829 -0.14782,0.4146 0.06839,0.8705 0.48292,1.0183 1.45503,0.5189 2.8499,0.4571 4.0325,0.2317 1.14828,-0.219 2.11039,-0.5692 2.80265,-0.6699 0.43552,-0.0633 0.73724,-0.4677 0.67391,-0.9032 -0.06333,-0.4356 -0.46773,-0.7373 -0.90325,-0.6739 -1.8724,0.2722 -3.86944,1.299 -6.07049,0.5141"/><path id="path34" style="fill:#000000;fill-opacity:1;fill-rule:nonzero;stroke:none" d="m 37.04064,774.5567 c -0.43612,-0.0591 -0.83756,0.2465 -0.89664,0.6827 -0.05908,0.4361 0.24657,0.8375 0.68269,0.8966 0.35927,0.0487 0.77074,-0.1658 0.95189,-0.4054 0.16998,-0.2247 0.22867,-0.4395 0.27311,-0.6484 0.08888,-0.4179 0.09792,-0.882 0.08827,-1.4151 -0.02005,-1.1072 -0.14806,-2.4477 -0.24339,-3.7723 -0.10346,-1.4377 -0.12864,-2.7641 -0.049,-3.8145 0.0747,-0.9851 0.34272,-1.6541 0.34464,-1.6559 0.31908,-0.3031 0.33203,-0.8075 0.02892,-1.1266 -0.30311,-0.3191 -0.80749,-0.332 -1.12658,-0.0289 -0.677,0.6431 -0.75126,1.5712 -0.83617,2.6909 -0.08855,1.1679 -0.05882,2.5573 0.04856,4.0494 0.09662,1.3426 0.22117,2.6725 0.23953,3.6867 0.0086,0.4767 -0.01262,0.8618 -0.05365,1.0547 -0.01672,0.0786 0.07021,-0.0548 0.01454,0.0188 -0.03411,0.0451 0.30694,-0.2093 0.20364,-0.1609 -0.10632,0.0498 0.42357,-0.0391 0.32964,-0.0518"/><path id="path36" style="fill:#000000;fill-opacity:1;fill-rule:nonzero;stroke:none" d="m 41.69586,772.3867 c -0.26561,0.351 -0.19646,0.8507 0.15445,1.1164 0.35092,0.2656 0.85071,0.1964 1.11632,-0.1545 0.4927,-0.6509 0.55768,-1.4929 0.60667,-2.5315 0.05071,-1.075 -0.02083,-2.3074 -0.25392,-3.5261 -0.18232,-0.9532 -0.48737,-1.8194 -0.79796,-2.54 -0.21381,-0.4961 -0.38624,-0.97 -0.74068,-1.3875 -0.19152,-0.2256 -0.40219,-0.4197 -0.66017,-0.5647 -0.26381,-0.1483 -0.66875,-0.3037 -1.12133,-0.0732 -0.23765,0.121 -0.36807,0.3202 -0.43238,0.4713 -0.06056,0.1422 -0.07943,0.2608 -0.09032,0.3683 -0.02116,0.2089 -0.0068,0.3996 0.01653,0.6035 0.04758,0.4161 0.14602,0.8853 0.25886,1.3811 0.23939,1.0519 0.63236,2.3024 0.99745,3.6572 0.23075,0.8563 0.35664,1.8187 0.57313,2.7295 0.36819,1.5491 1.04151,2.5835 1.56402,3.1876 0.25991,0.3004 0.52398,0.5708 0.90645,0.7398 0.39664,0.1752 0.96808,0.1285 1.34021,-0.1329 0.61921,-0.4349 0.9317,-1.1727 1.18989,-2.1432 0.34272,-1.2882 0.46432,-2.8754 0.60281,-4.4805 0.09605,-1.1132 0.11794,-2.1968 0.23024,-3.0939 0.17792,-1.4213 0.79949,-2.3478 1.09714,-2.5516 0.0493,-0.0338 -0.1296,-0.008 -0.03871,-0.0107 0.05249,-0.002 -0.27609,-0.0762 -0.20201,-0.0423 0.07472,0.0341 -0.21207,-0.185 -0.17501,-0.137 0.03419,0.0444 -0.04954,-0.0916 -0.04726,-0.084 0.0022,0.007 0.0229,0.2197 -0.06129,0.5709 -0.10259,0.428 0.1612,0.8581 0.58917,0.9607 0.42798,0.1026 0.85809,-0.1612 0.96068,-0.5892 0.16354,-0.6822 0.23403,-1.2958 -0.17927,-1.8317 -0.21572,-0.2797 -0.60683,-0.4519 -0.94076,-0.4402 -0.32276,0.0113 -0.58317,0.1359 -0.80602,0.2885 -0.89432,0.6124 -1.55705,1.903 -1.77807,3.6686 -0.12655,1.0109 -0.14595,2.1034 -0.23668,3.1549 -0.13798,1.5991 -0.26987,3.1355 -0.55514,4.2078 -0.21039,0.7908 -0.50428,1.2055 -0.56573,1.2487 -0.01517,0.0107 0.23794,-0.0128 0.21986,-0.0208 -0.01423,-0.006 -0.15976,-0.1103 -0.34515,-0.3246 -0.38843,-0.449 -0.91504,-1.2354 -1.21882,-2.5134 -0.19173,-0.8067 -0.31956,-1.7914 -0.58483,-2.7757 -0.3738,-1.3871 -0.76429,-2.6383 -0.98228,-3.5961 -0.10733,-0.4716 -0.19457,-0.9035 -0.22944,-1.2085 -0.01599,-0.1398 -0.01625,-0.243 -0.01434,-0.2619 1.2e-4,-0.001 -0.05875,0.1654 -0.02892,0.0954 0.01675,-0.0394 -0.13989,0.2079 -0.09181,0.1496 0.05053,-0.0613 -0.31273,0.2228 -0.21896,0.175 0.06704,-0.0341 -0.25295,0.0656 -0.19462,0.059 0.08265,-0.009 -0.19767,-0.0189 -0.16788,-0.0106 0.02498,0.007 -0.0286,-0.0107 -0.02029,-0.006 0.03483,0.0195 0.13132,0.0952 0.22615,0.2068 0.10519,0.1239 0.27848,0.4915 0.49199,0.9868 0.27546,0.6392 0.54194,1.4022 0.69617,2.2086 0.41419,2.1655 0.09785,4.5903 -0.05814,4.7963"/><path id="path38" style="fill:#000000;fill-opacity:1;fill-rule:nonzero;stroke:none" d="m 43.90991,765.779 c -0.37377,-0.2323 -0.86513,-0.1177 -1.09747,0.2561 -0.23235,0.3737 -0.11771,0.8651 0.25606,1.0974 0.55321,0.3439 1.13853,0.3086 1.79798,0.2894 1.90445,-0.0555 5.18247,0.02 6.23761,0.0393 0.44003,0.008 0.80327,-0.3421 0.81131,-0.7821 0.0081,-0.4401 -0.34214,-0.8033 -0.78217,-0.8113 -1.05258,-0.0193 -4.32395,-0.0969 -6.31317,-0.039 -0.64105,0.0187 -0.83342,-0.002 -0.91015,-0.0498"/><path id="path40" style="fill:#000000;fill-opacity:1;fill-rule:nonzero;stroke:none" d="m 52.89897,771.1151 c -0.18256,-0.4004 -0.65519,-0.577 -1.05564,-0.3945 -0.40045,0.1826 -0.57708,0.6552 -0.39451,1.0557 0.15541,0.3409 0.38655,0.8208 0.53794,1.3498 0.08286,0.2895 0.10875,0.6684 0.14083,1.0098 0.02109,0.2245 0.0514,0.4118 0.07005,0.5277 0.0082,0.0509 0.0031,-0.0338 0.0073,0.0328 7.7e-4,0.0124 -7.6e-4,-0.0866 -0.0013,-0.0582 -5.6e-4,0.0314 0.04214,-0.2552 0.02085,-0.1651 -0.10118,0.4283 0.16402,0.8575 0.59233,0.9587 0.42831,0.1012 0.85755,-0.164 0.95873,-0.5923 0.04069,-0.1723 0.02218,-0.2076 0.01997,-0.2429 -0.0067,-0.1066 -0.01584,-0.1331 -0.02443,-0.1864 -0.01789,-0.1111 -0.04118,-0.2575 -0.05677,-0.4234 -0.02863,-0.3047 -0.04845,-0.7859 -0.19535,-1.2992 -0.19651,-0.6867 -0.47491,-1.2542 -0.62003,-1.5725 m -0.47942,4.0908 c 0.30311,0.3191 0.8075,0.332 1.12659,0.0289 0.31908,-0.3031 0.33203,-0.8075 0.02893,-1.1266 -0.05923,-0.0623 0.11572,0.1558 0.09877,0.1282 -0.04261,-0.0691 0.05076,0.0989 0.04755,0.0912 -0.11693,-0.2793 -0.36658,-1.2654 -0.59881,-2.3964 -0.25489,-1.2414 -0.37454,-2.7222 -0.46156,-4.0973 -0.05692,-0.8992 -0.11047,-1.702 -0.06595,-2.3043 0.02626,-0.3553 0.12622,-0.6307 0.24201,-0.8217 0.10817,-0.1784 0.23252,-0.2668 0.24695,-0.2734 0.05472,-0.025 -0.34566,-0.0186 -0.26197,0.009 0.07506,0.0252 -0.08889,-0.0532 -0.06901,-0.0291 0.06137,0.0746 0.1872,0.3324 0.26551,0.7094 0.08538,0.4109 0.09986,1.0295 0.08618,1.8267 -0.01162,0.6768 0.0065,1.4063 -0.02737,2.1836 -0.03766,0.8637 -0.16721,1.8125 -0.26695,2.7343 -0.11883,1.0981 -0.19878,2.0542 -0.27115,2.7492 -0.03226,0.3098 -0.05522,0.5546 -0.07188,0.7315 -0.0078,0.0826 -0.01399,0.148 -0.01864,0.1925 -0.0041,0.0394 0.02578,-0.0951 0.0051,-0.008 -0.10175,0.4282 0.16287,0.8578 0.59105,0.9595 0.42818,0.1018 0.85777,-0.1629 0.95952,-0.591 0.07747,-0.326 0.05874,-0.5307 0.12003,-1.1193 0.07496,-0.7199 0.15388,-1.6655 0.27047,-2.7429 0.097,-0.8964 0.23276,-1.8747 0.27468,-2.8362 0.03659,-0.8393 0.01778,-1.5924 0.02866,-2.2258 0.01426,-0.831 0.01353,-1.5391 -0.11927,-2.1783 -0.11268,-0.5423 -0.28106,-1.0157 -0.59505,-1.3975 -0.15916,-0.1935 -0.37152,-0.3745 -0.65534,-0.4696 -0.28935,-0.097 -0.63484,-0.0722 -0.90688,0.0521 -0.39168,0.1789 -0.70244,0.4925 -0.94751,0.8968 -0.25058,0.4133 -0.42445,0.9337 -0.46856,1.5304 -0.05711,0.7728 0.0079,1.623 0.0648,2.5225 0.08861,1.4002 0.2078,2.9381 0.49095,4.3171 0.24005,1.1692 0.45136,2.1218 0.6899,2.6914 0.01437,0.0343 -0.03564,0.0482 0.16825,0.2628 m 0.01527,0.4476 c -0.03559,0.4387 0.29116,0.8231 0.72982,0.8587 0.43866,0.0356 0.82312,-0.2911 0.85871,-0.7298 0.0089,-0.1094 2.1e-4,0.007 0.01064,-0.0582 0.0126,-0.0792 0.03153,-0.1927 0.0572,-0.3355 0.05479,-0.3048 0.13606,-0.7198 0.24788,-1.2066 0.23419,-1.0194 0.58265,-2.2757 1.07984,-3.4413 0.75234,-1.7639 1.74306,-3.331 2.76549,-3.9394 0.41911,-0.2494 0.90914,-0.3198 1.35006,-0.2316 0.436,0.0872 0.8103,0.3258 1.03168,0.6627 0.15762,0.2399 0.23933,0.7346 0.18042,1.3964 -0.04174,0.4689 -0.17344,1.0246 -0.37642,1.6617 -0.23804,0.7471 -0.55549,1.5563 -0.88863,2.3356 -0.70197,1.6421 -1.55526,2.871 -1.97696,3.2579 -0.03922,0.036 -0.06638,0.0553 -0.06647,0.0554 -0.0025,0.002 0.06196,-0.0298 0.03753,-0.0192 -0.02751,0.012 0.20881,-0.0492 0.13983,-0.0389 -0.07444,0.0111 0.42335,0.0615 0.30188,0.0241 -0.09385,-0.0289 0.34355,0.2187 0.26694,0.1505 -0.11256,-0.1003 0.22554,0.3833 0.19831,0.2999 -0.02497,-0.0765 0.0286,0.1838 0.02805,0.1551 -0.0013,-0.0687 0.0081,-0.0468 0.0753,-0.2323 0.0743,-0.2052 0.19862,-0.4883 0.37639,-0.8416 0.19781,-0.3932 0.03945,-0.8723 -0.35369,-1.0701 -0.39315,-0.1978 -0.87221,-0.0394 -1.07001,0.3537 -0.38833,0.7719 -0.63247,1.2439 -0.62145,1.8208 0.0031,0.1596 0.02437,0.3853 0.22208,0.6177 0.20855,0.2451 0.58352,0.3324 0.81049,0.2986 0.40186,-0.0597 0.55487,-0.2366 0.7322,-0.3993 0.73958,-0.6784 1.59471,-2.0039 2.36504,-3.8058 0.34674,-0.8112 0.68135,-1.6611 0.9417,-2.4783 0.22471,-0.7052 0.38857,-1.3662 0.44536,-2.0041 0.07533,-0.8463 0.03114,-1.7021 -0.43593,-2.4129 -0.47582,-0.7242 -1.23778,-1.1878 -2.0511,-1.3504 -0.81518,-0.163 -1.7083,-0.0329 -2.47755,0.4248 -1.56275,0.9298 -2.60178,2.7736 -3.41651,4.6837 -0.55193,1.294 -0.91906,2.6298 -1.16717,3.7098 -0.1184,0.5154 -0.20446,0.9548 -0.26318,1.2814 -0.02761,0.1535 -0.04825,0.2772 -0.06253,0.3669 -0.01201,0.0754 -0.0151,0.055 -0.02524,0.1799"/><path id="path42" style="fill:#000000;fill-opacity:1;fill-rule:nonzero;stroke:none" d="m 67.14753,774.0175 c 0.18474,-0.3994 0.01069,-0.873 -0.38876,-1.0577 -0.39944,-0.1848 -0.87303,-0.0107 -1.05777,0.3887 -0.20633,0.4461 -0.24757,0.8512 -0.3306,1.0972 -0.0022,0.006 0.09682,-0.0617 0.05,-0.041 -0.02752,0.0121 0.19594,-0.0135 0.13466,-0.019 -0.06414,-0.006 0.23211,0.1123 0.18487,0.074 -0.02144,-0.0173 -0.27998,-0.5938 -0.43531,-1.4391 -0.16323,-0.8882 -0.27481,-1.9493 -0.39569,-2.961 -0.12799,-1.0711 -0.25515,-2.0418 -0.19346,-2.7522 0.06157,-0.709 0.37474,-1.1132 0.73805,-1.2883 0.34597,-0.1667 0.80014,-0.1812 1.2909,0.045 0.5083,0.2342 1.10302,0.8831 1.54696,1.6188 0.68897,1.1416 0.71618,2.698 0.49762,3.4306 -0.01842,0.0618 -0.03999,0.0995 -0.05104,0.1149 -0.0078,0.0109 0.09216,-0.0577 0.04424,-0.0302 -0.07541,0.0434 0.43077,-0.0908 0.30821,-0.0866 -0.12324,0.004 0.41481,0.1158 0.32906,0.0722 -0.08105,-0.0413 0.19308,0.1525 0.16206,0.1195 -0.02807,-0.0298 0.05057,0.0662 0.04537,0.0577 -0.0073,-0.0121 -0.0477,-0.1125 -0.08862,-0.298 -0.09017,-0.4089 -0.14731,-1.0261 -0.14133,-1.6777 0.01424,-1.5531 0.29147,-3.0926 0.92103,-4.1236 0.5977,-0.9788 1.47674,-1.5177 2.95939,-1.3046 0.43562,0.0625 0.83951,-0.2399 0.9021,-0.6755 0.06259,-0.4356 -0.23981,-0.8395 -0.67544,-0.9021 -2.02106,-0.2904 -3.68608,0.643 -4.54625,2.0516 -0.86359,1.4143 -1.13862,3.2063 -1.15451,4.9396 -0.0069,0.7528 0.0514,1.4585 0.17867,2.0356 0.06187,0.2804 0.12934,0.5304 0.28434,0.7846 0.08125,0.1332 0.19414,0.2931 0.43073,0.4134 0.25241,0.1284 0.64243,0.1118 0.87896,-0.024 0.37499,-0.2154 0.61032,-0.5755 0.74027,-1.0112 0.36484,-1.223 0.3195,-3.0861 -0.66034,-4.7097 -0.54528,-0.9036 -1.26193,-1.79 -2.24442,-2.2427 -0.87442,-0.403 -1.85126,-0.4182 -2.64989,-0.0333 -0.90507,0.4362 -1.53236,1.4169 -1.6339,2.5862 -0.08463,0.9746 0.07166,2.0156 0.19875,3.0791 0.11954,1.0005 0.23164,2.0857 0.41067,3.0599 0.17463,0.9503 0.28594,1.8113 0.99954,2.3895 0.39014,0.3161 0.93788,0.3366 1.32757,0.1645 0.38379,-0.1695 0.67766,-0.4966 0.81625,-0.9072 0.14493,-0.4294 0.21101,-0.8167 0.26706,-0.9379"/><path id="path44" style="fill:#000000;fill-opacity:1;fill-rule:nonzero;stroke:none" d="m 81.14257,771.099 c 0.03187,-0.439 -0.29814,-0.8206 -0.73708,-0.8525 -0.43895,-0.0319 -0.82062,0.2981 -0.85248,0.7371 -0.04749,0.6542 -0.19474,1.3069 -0.57094,1.8294 -0.21632,0.3004 -0.42255,0.5169 -0.72323,0.6508 -0.47246,0.2102 -1.27646,0.2503 -2.03519,0.0965 -0.75082,-0.1523 -1.39135,-0.5008 -1.59178,-0.7642 -0.08236,-0.1083 -0.09676,-0.1606 -0.04453,-0.321 0.07783,-0.2391 0.14997,-0.4134 0.36835,-0.6196 0.62675,-0.5919 2.322,-1.1831 4.07327,-1.8351 1.14514,-0.4263 2.33893,-0.7828 3.39791,-1.1902 1.67025,-0.6425 2.78928,-1.4511 3.25491,-2.4391 0.18593,-0.3945 0.21201,-0.8553 0.09229,-1.2474 -0.11821,-0.3872 -0.35287,-0.7067 -0.63089,-0.9683 -0.55738,-0.5245 -1.31718,-0.8655 -2.15561,-1.0431 -2.46088,-0.5212 -5.35998,0.6515 -6.72726,2.6751 -0.24639,0.3647 -0.1505,0.8601 0.21416,1.1065 0.36467,0.2463 0.86003,0.1505 1.10642,-0.2142 0.9174,-1.3578 3.38236,-2.367 5.07646,-2.0082 0.60315,0.1277 1.1204,0.3875 1.39367,0.6446 0.12428,0.1169 0.18228,0.219 0.19877,0.273 0.01339,0.0439 0.01549,0.0491 -0.0097,0.1025 -0.18003,0.382 -0.94663,1.0776 -2.38547,1.6311 -0.98161,0.3777 -2.17852,0.7362 -3.38175,1.1841 -1.72517,0.6423 -3.51367,1.1333 -4.61143,2.1699 -0.46065,0.435 -0.67619,0.9367 -0.7896,1.2851 -0.1953,0.6 -0.0804,1.2903 0.29165,1.7793 0.58581,0.77 1.54345,1.1584 2.54344,1.3611 1.00515,0.2038 2.08132,0.2064 2.99988,-0.2024 0.64616,-0.2875 1.07158,-0.7631 1.36857,-1.1755 0.61716,-0.8571 0.80768,-1.8258 0.86717,-2.6453"/><path id="path46" style="fill:#000000;fill-opacity:1;fill-rule:nonzero;stroke:none" d="m 100.3907,774.7365 c -0.2071,-0.3883 -0.68977,-0.5352 -1.0781,-0.3281 -0.38834,0.2071 -0.53526,0.6898 -0.32817,1.0781 0.03939,0.0738 0.08981,0.1637 0.20844,0.2695 0.13024,0.1162 0.40219,0.253 0.69576,0.2037 0.55767,-0.0936 0.61497,-0.4333 0.66927,-0.5706 0.0978,-0.2467 0.1178,-0.4477 0.1493,-0.7025 0.066,-0.5341 0.1071,-1.2281 0.1495,-1.9761 0.0886,-1.565 0.1465,-3.1708 0.3014,-4.484 0.0742,-0.6298 0.1706,-1.1709 0.2911,-1.5534 0.0563,-0.1787 0.1163,-0.3133 0.1632,-0.3899 0.0401,-0.0654 -0.0335,-0.0143 0.0118,-0.0386 0.3877,-0.2083 0.5331,-0.6914 0.3249,-1.0791 -0.2083,-0.3877 -0.6914,-0.5332 -1.0791,-0.3249 -0.5589,0.3002 -0.7745,0.8254 -0.94095,1.3538 -0.16976,0.539 -0.27301,1.1603 -0.35379,1.8455 -0.16587,1.4071 -0.22209,3.0326 -0.30975,4.5805 -0.04192,0.7401 -0.08424,1.4195 -0.14002,1.8706 -0.02523,0.2039 -0.03219,0.268 -0.0493,0.3112 -0.0082,0.0207 0.13522,-0.2089 0.07886,-0.1353 -0.03113,0.0407 0.22148,-0.1975 0.14876,-0.1446 -0.07689,0.0559 0.45442,-0.1568 0.32094,-0.1344 -0.13558,0.0228 0.50575,0.0791 0.39315,0.0373 -0.08144,-0.0303 0.2416,0.1433 0.1933,0.1063 -0.0685,-0.0523 0.1602,0.1692 0.1339,0.1341 -0.0243,-0.0323 0.0539,0.0864 0.0456,0.0709"/><path id="path48" style="fill:#000000;fill-opacity:1;fill-rule:nonzero;stroke:none" d="m 99.02057,774.911 c 0.05855,-0.4362 -0.24758,-0.8373 -0.68377,-0.8959 -0.43619,-0.0585 -0.83726,0.2476 -0.89581,0.6838 -0.0422,0.3144 0.11029,0.6652 0.29934,0.8493 0.17839,0.1738 0.35916,0.2517 0.52898,0.311 0.3349,0.1171 0.69204,0.1615 1.10211,0.1938 0.85178,0.0671 1.90508,0.0507 3.03828,0.0232 2.3003,-0.0557 4.7551,-0.1657 5.7888,0.0783 0.4283,0.1011 0.8575,-0.1641 0.9587,-0.5925 0.1011,-0.4283 -0.1642,-0.8575 -0.5925,-0.9586 -1.5135,-0.3573 -3.9092,-0.1758 -6.1936,-0.1205 -1.1176,0.0271 -2.1402,0.0391 -2.87451,-0.0187 -0.34076,-0.0269 -0.6009,-0.0743 -0.70131,-0.1094 -0.01911,-0.007 -0.01154,-0.003 -0.01886,-0.007 -0.0077,-0.004 0.07229,0.0535 0.04819,0.0336 -0.04025,-0.0333 0.19048,0.2924 0.14529,0.1938 -0.04695,-0.1024 0.03687,0.4384 0.05067,0.3356"/><path id="path50" style="fill:#000000;fill-opacity:1;fill-rule:nonzero;stroke:none" d="m 100.8932,771.1892 c -0.1236,0.4224 0.1185,0.865 0.5409,0.9887 0.4224,0.1236 0.865,-0.1186 0.9887,-0.5409 0.0181,-0.0619 -0.0706,0.1418 -0.056,0.121 0.0305,-0.0435 0.0244,-0.024 0.1562,-0.0939 0.1955,-0.1037 0.5032,-0.2143 0.8781,-0.2928 0.7865,-0.1646 1.8104,-0.1845 2.835,0.0988 0.4242,0.1174 0.8632,-0.1314 0.9805,-0.5556 0.1173,-0.4242 -0.1315,-0.8631 -0.5556,-0.9804 -1.3015,-0.36 -2.5637,-0.3368 -3.5864,-0.1227 -0.4959,0.1038 -0.932,0.2504 -1.2984,0.4447 -0.3603,0.1912 -0.7284,0.4048 -0.883,0.9331"/><path id="path52" style="fill:#000000;fill-opacity:1;fill-rule:nonzero;stroke:none" d="m 113.1576,773.6259 c 0.3431,-0.2756 0.3979,-0.7771 0.1223,-1.1203 -0.2756,-0.3431 -0.7772,-0.3978 -1.1203,-0.1222 -0.2314,0.1858 -0.7006,0.4189 -1.1791,0.5181 -0.4706,0.0976 -0.8912,0.0516 -1.1339,-0.1129 -0.1166,-0.079 -0.2807,-0.2953 -0.3962,-0.6382 -0.1217,-0.3616 -0.1857,-0.8274 -0.1696,-1.3247 0.0184,-0.5714 0.0779,-1.0884 0.2863,-1.4954 0.2615,-0.5106 0.9215,-1.0164 1.7816,-1.3484 1.2237,-0.4723 3.0366,-0.4048 4.5901,0.0247 1.0502,0.2903 1.9321,0.8576 2.4154,1.3701 0.1826,0.1937 0.2021,0.2895 0.1956,0.384 -0.0125,0.1832 -0.3386,0.6871 -0.9586,1.1552 -0.6476,0.4889 -1.491,0.9223 -2.2826,1.1997 -1.0909,0.3823 -2.0405,0.2573 -2.2034,0.1433 -0.0177,-0.0123 0.0517,0.1189 0.0328,0.0642 -0.0195,-0.0561 0.007,0.108 0.0129,0.0914 0.0259,-0.0745 0.236,-0.3715 0.7365,-0.7181 0.3618,-0.2506 0.4519,-0.747 0.2014,-1.1088 -0.2506,-0.3618 -0.7471,-0.452 -1.1089,-0.2014 -0.6578,0.4556 -1.1297,0.9167 -1.3342,1.5045 -0.1032,0.2964 -0.1215,0.6432 -0.0135,0.9546 0.1073,0.3094 0.3227,0.5539 0.5595,0.7196 0.9235,0.646 2.2433,0.5457 3.644,0.0548 0.9431,-0.3305 1.9073,-0.8215 2.7158,-1.4318 0.7976,-0.6022 1.5204,-1.3241 1.5884,-2.3186 0.04,-0.5862 -0.2248,-1.1602 -0.6261,-1.5859 -0.7164,-0.7597 -1.8149,-1.4437 -3.1503,-1.813 -1.8091,-0.5001 -3.8833,-0.6336 -5.5888,0.0247 -1.1037,0.426 -2.1084,1.0979 -2.6261,2.1087 -0.3831,0.748 -0.4397,1.5204 -0.4607,2.1704 -0.0215,0.6647 0.0579,1.3076 0.252,1.8845 0.1925,0.572 0.5035,1.1041 1.0125,1.4491 0.7345,0.4979 1.609,0.5083 2.3518,0.3542 0.7325,-0.1519 1.3761,-0.4527 1.8534,-0.8361"/><path id="path54" style="fill:#000000;fill-opacity:1;fill-rule:nonzero;stroke:none" d="m 120.6194,773.7178 c 0.1128,-0.4254 -0.1405,-0.8618 -0.5659,-0.9746 -0.4254,-0.1129 -0.8617,0.1405 -0.9746,0.5659 -0.059,0.2222 -0.0341,0.2065 -0.0801,0.2775 -0.0177,0.0273 0.2051,-0.2031 0.1268,-0.139 -0.0424,0.0347 0.2542,-0.1392 0.1768,-0.1065 -0.0805,0.0341 0.4019,-0.0599 0.2923,-0.0595 -0.1104,3e-4 0.4014,0.106 0.3113,0.0657 -0.1301,-0.058 0.3114,0.2542 0.2611,0.1948 -0.0465,-0.0549 0.0988,0.1555 0.0841,0.1261 -0.0328,-0.0656 0.0258,0.0666 0.0202,0.0405 -0.0238,-0.1126 -0.0514,-0.4079 -0.0649,-0.7665 -0.0369,-0.9862 -0.0152,-2.345 5e-4,-3.5539 0.007,-0.4945 -0.005,-0.9314 0,-1.29 0.005,-0.3394 0.0233,-0.635 0.0505,-0.8248 0.0122,-0.085 0.019,-0.1148 0.0235,-0.1273 0.005,-0.0131 -0.1177,0.19 -0.0664,0.1195 0.0285,-0.0392 -0.2073,0.1935 -0.1388,0.1412 0.0723,-0.0552 -0.427,0.1618 -0.3016,0.1364 0.1214,-0.0247 -0.4457,-0.0346 -0.3457,-0.009 0.1429,0.0367 -0.347,-0.1939 -0.2894,-0.1464 0.0531,0.0437 -0.1207,-0.1283 -0.1012,-0.1033 0.0441,0.0565 -0.0412,-0.0632 -0.0346,-0.049 0.0193,0.0417 0.0603,0.1515 0.1035,0.2894 0.0918,0.2934 0.1908,0.6806 0.2734,1.0443 0.1307,0.5756 0.1504,1.4586 0.5274,2.5602 0.3769,1.1012 1.0334,2.2468 1.7157,3.32 0.4256,0.6694 0.8676,1.2982 1.318,1.8253 0.664,0.777 1.3451,1.2961 2.1245,1.3698 0.3916,0.0371 0.8055,-0.0712 1.1198,-0.302 0.3114,-0.2287 0.5206,-0.5499 0.6537,-0.8927 0.2625,-0.6759 0.3264,-1.5068 0.2165,-2.4189 -0.2162,-1.7933 -1.3997,-3.4592 -2.2565,-4.8121 -0.3871,-0.6113 -0.7379,-1.0995 -0.8533,-1.3752 -0.0521,-0.1243 -0.0785,-0.2181 -0.084,-0.2541 -0.002,-0.0128 -0.004,0.0367 -0.002,0.014 0.002,-0.0269 -0.0621,0.1747 -0.037,0.1238 0.05,-0.1016 -0.2161,0.2276 -0.1701,0.1977 0.0392,-0.0255 -0.0512,0.0256 -0.0369,0.0216 0.044,-0.0122 0.1738,-0.0299 0.3454,-0.0327 0.3695,-0.006 0.8713,0.0408 1.384,0.0855 1.9442,0.1698 4.0115,0.4462 6.1255,0.055 0.4328,-0.0801 0.7187,-0.4958 0.6386,-0.9286 -0.0801,-0.4327 -0.4959,-0.7186 -0.9286,-0.6385 -1.8086,0.3347 -3.7258,0.0965 -5.6969,-0.0756 -0.5088,-0.0444 -1.045,-0.0995 -1.5482,-0.0913 -0.2496,0.004 -0.4927,0.0202 -0.746,0.0905 -0.2609,0.0724 -0.6059,0.2251 -0.7965,0.6122 -0.2771,0.5624 -0.0826,1.0417 0.0825,1.4361 0.2376,0.5674 0.6225,1.0526 0.977,1.6123 0.8596,1.3574 1.875,2.9423 2.0206,4.1501 0.0847,0.703 0.0112,1.314 -0.1198,1.6513 -0.0489,0.1258 -0.0987,0.1756 -0.1114,0.185 -0.006,0.004 0.0142,0.004 -0.0264,0 -0.1262,-0.012 -0.549,-0.2172 -1.063,-0.8186 -0.3798,-0.4445 -0.7872,-1.0198 -1.1846,-1.6449 -0.6477,-1.0188 -1.2488,-2.0927 -1.5528,-2.981 -0.2988,-0.873 -0.3012,-1.6049 -0.4811,-2.3971 -0.0895,-0.3943 -0.1948,-0.8101 -0.3067,-1.1676 -0.0546,-0.1743 -0.1077,-0.3305 -0.1778,-0.4821 -0.0356,-0.0771 -0.073,-0.1568 -0.1556,-0.2626 -0.0918,-0.1177 -0.3262,-0.4266 -0.8371,-0.3229 -0.2807,0.057 -0.4446,0.2274 -0.5313,0.3465 -0.0803,0.1104 -0.1167,0.2009 -0.1454,0.2811 -0.0551,0.1539 -0.0796,0.2911 -0.1007,0.4384 -0.0429,0.2997 -0.0607,0.6449 -0.0664,1.0273 -0.006,0.4039 0.006,0.8337 0,1.2929 -0.0157,1.2089 -0.039,2.5779 5e-4,3.6342 0.0198,0.5292 -0.0341,0.8881 0.2123,1.3801 0.0762,0.1523 0.2891,0.4948 0.7729,0.4934 0.4724,-10e-4 0.6493,-0.2865 0.7369,-0.4216 0.157,-0.2421 0.207,-0.448 0.2834,-0.7359"/><path id="path56" style="fill:#000000;fill-opacity:1;fill-rule:nonzero;stroke:none" d="m 142.6902,775.3968 c 0.1035,-0.4278 -0.1593,-0.8585 -0.5871,-0.962 -0.4277,-0.1035 -0.8584,0.1594 -0.9619,0.5871 -0.0102,0.0423 0.0293,-0.0518 0.004,0.004 -0.008,0.0171 0.0621,-0.11 0.0407,-0.0757 -0.0172,0.0276 0.1182,-0.1475 0.0795,-0.1049 -0.0307,0.0339 0.1875,-0.1541 0.1293,-0.1136 -0.0454,0.0317 0.2401,-0.1161 0.171,-0.09 -0.1073,0.0405 0.5157,-0.0261 0.3804,-0.0439 -0.1344,-0.0177 0.4246,0.1871 0.3388,0.1289 -0.1272,-0.0865 0.2626,0.2966 0.225,0.2352 -0.0507,-0.0829 0.0827,0.1928 0.0734,0.1618 -0.008,-0.0274 0.0131,0.054 0.0119,0.0476 -0.002,-0.01 -0.003,-0.0208 -0.006,-0.0682 -0.0167,-0.2278 -0.0191,-0.6789 -0.0166,-1.2073 0.006,-1.3712 -0.0262,-3.0684 -1e-4,-4.3711 0.0119,-0.5984 0.0244,-1.0791 0.0584,-1.3318 0.005,-0.0366 0.0116,-0.0584 0.0121,-0.06 0.001,-0.003 -0.1044,0.1504 -0.056,0.0903 0.0273,-0.0339 -0.2115,0.1736 -0.14,0.1261 0.0768,-0.0509 -0.4962,0.1273 -0.3446,0.1164 0.156,-0.0112 -0.5787,-0.1971 -0.4551,-0.1169 0.1183,0.0767 -0.2639,-0.3015 -0.2245,-0.2337 0.0387,0.0667 -0.0685,-0.1803 -0.0609,-0.1486 0.0195,0.0816 -0.004,4e-4 -0.0132,0.1298 -0.01,0.1413 -0.0279,0.3291 -0.0334,0.5442 -0.0163,0.6396 0.005,1.4168 -2e-4,2.3245 -0.006,0.9318 -0.0608,2.0719 0.0397,3.3608 0.1134,1.4546 0.4157,2.928 0.7822,4.0802 0.3139,0.9871 0.8593,1.7458 1.6514,1.983 0.5772,0.1728 1.2738,0.0758 1.8858,-0.2864 0.845,-0.5001 1.6372,-1.3313 2.2729,-2.3236 0.7911,-1.2351 1.0338,-2.6941 1.105,-3.9122 0.0567,-0.9707 -0.0634,-1.8691 -0.4724,-2.6055 -0.4439,-0.7992 -1.2122,-1.1877 -1.846,-1.3899 -0.5317,-0.1695 -0.9857,-0.1011 -1.1487,-0.1028 -0.0432,-5e-4 0.0127,0.006 -0.0281,10e-4 -0.0133,-10e-4 0.0922,0.0167 0.0624,0.0103 -0.0325,-0.007 0.2085,0.0753 0.143,0.0465 -0.0714,-0.0315 0.3817,0.3283 0.2776,0.2067 -0.0545,-0.0637 0.1745,0.3313 0.1401,0.2384 -0.0345,-0.0932 0.0479,0.3743 0.0491,0.2839 0.001,-0.0897 -0.0559,0.2885 -0.0362,0.226 0.0281,-0.0892 -0.1214,0.2379 -0.0922,0.1937 0.0274,-0.0414 -0.0884,0.1104 -0.0696,0.0897 0.045,-0.0496 -0.0788,0.0733 -0.0714,0.0675 0.007,-0.005 0.0222,-0.0158 0.0672,-0.0466 0.7476,-0.5121 2.0551,-1.6169 3.4607,-2.5317 0.6907,-0.4495 1.3624,-0.8221 1.8849,-0.9991 0.2426,-0.0822 0.4361,-0.1116 0.5376,-0.107 0.081,0.004 0.0207,-0.0267 0.0359,-0.0101 0.2972,0.3245 0.8013,0.3466 1.1258,0.0493 0.3246,-0.2972 0.3466,-0.8013 0.0494,-1.1258 -0.3045,-0.3325 -0.7453,-0.4874 -1.1381,-0.5054 -0.3873,-0.0178 -0.7564,0.0657 -1.1219,0.1895 -0.7406,0.2508 -1.4928,0.6847 -2.2429,1.1729 -1.5062,0.9802 -2.8903,2.1403 -3.4922,2.5526 -0.0484,0.0332 -0.0913,0.0615 -0.1486,0.1063 -0.031,0.0242 -0.0689,0.053 -0.1261,0.1159 -0.0643,0.0708 -0.2122,0.1959 -0.216,0.5435 -0.005,0.3795 0.3239,0.6776 0.4846,0.7484 0.138,0.0607 0.2079,0.0627 0.2593,0.0684 0.091,0.0102 0.1377,0.008 0.1887,0.009 0.3188,0.003 0.554,-0.0131 0.6815,0.0276 0.4055,0.1293 0.7765,0.3564 0.9369,0.6452 0.2066,0.372 0.3194,0.9727 0.2747,1.7387 -0.0619,1.0577 -0.2959,2.2711 -0.8561,3.1455 -0.5186,0.8096 -1.1946,1.4874 -1.7426,1.8118 -0.3084,0.1825 -0.4578,0.1787 -0.6169,0.1311 -0.1134,-0.034 -0.3641,-0.2297 -0.5898,-0.9392 -0.3237,-1.0179 -0.6094,-2.4061 -0.712,-3.7211 -0.0916,-1.1758 -0.0408,-2.2544 -0.0349,-3.2272 0.006,-0.9339 -0.0149,-1.7174 -3e-4,-2.2937 0.009,-0.343 0.3107,-0.6462 -0.1075,-1.3662 -0.0574,-0.0989 -0.1454,-0.2117 -0.2863,-0.303 -0.1456,-0.0945 -0.3453,-0.1488 -0.5266,-0.1358 -0.3488,0.0252 -0.5339,0.2129 -0.6422,0.3473 -0.2002,0.2486 -0.2585,0.4893 -0.2946,0.7573 -0.0552,0.4115 -0.0602,0.9091 -0.0723,1.5122 -0.027,1.3506 0.006,3.051 -1e-4,4.3955 -0.002,0.5382 -0.004,0.9951 0.0208,1.331 0.006,0.0812 0.0126,0.1562 0.0292,0.2449 0.0177,0.0944 -0.1141,0.258 0.3607,0.5808 0.2939,0.1995 0.836,0.0795 1.0049,-0.0768 0.1447,-0.1337 0.1744,-0.2219 0.2034,-0.2861 0.0525,-0.1162 0.0707,-0.195 0.0924,-0.285"/><path id="path58" style="fill:#000000;fill-opacity:1;fill-rule:nonzero;stroke:none" d="m 158.2102,776.3841 c -0.1402,-0.4172 -0.592,-0.6418 -1.0092,-0.5016 -0.4172,0.1401 -0.6418,0.5919 -0.5016,1.0091 0.0731,0.2177 0.1111,0.3664 0.1153,0.3911 1e-4,2e-4 -0.005,-0.0755 -0.004,-0.0428 7e-4,0.0186 0.006,-0.118 0.002,-0.081 -0.004,0.04 0.0625,-0.2454 0.0366,-0.1696 -0.0282,0.0827 0.3152,-0.4212 0.1973,-0.3082 -0.0924,0.0885 0.5,-0.2295 0.3627,-0.1971 -0.1014,0.0239 0.3604,-0.004 0.2795,-0.0145 -0.116,-0.0149 0.315,0.1104 0.2562,0.0799 -0.055,-0.0285 0.146,0.0986 0.1188,0.0768 -0.0585,-0.0464 0.0991,0.0986 0.0881,0.0853 -0.0248,-0.0302 -0.1416,-0.2404 -0.3094,-0.6073 -0.3306,-0.7229 -0.7298,-1.7088 -0.925,-2.6485 -0.1533,-0.738 -0.1752,-1.4095 -0.0194,-1.9102 0.2631,-0.8452 1.249,-1.5571 2.414,-1.913 1.162,-0.355 2.3887,-0.2757 2.745,-0.0541 0.3737,0.2325 0.8651,0.118 1.0976,-0.2556 0.2324,-0.3737 0.118,-0.8651 -0.2557,-1.0976 -1.0791,-0.6713 -2.5891,-0.564 -4.0526,-0.1169 -1.4788,0.4518 -2.9796,1.3877 -3.47,2.9636 -0.2737,0.8795 -0.2055,1.8117 -0.0194,2.708 0.2355,1.1335 0.678,2.2041 1.0361,2.9872 0.2167,0.4737 0.2069,0.7312 0.6781,1.1061 0.0849,0.0676 0.2314,0.2024 0.5667,0.1822 0.3662,-0.0221 0.656,-0.3645 0.7196,-0.551 0.1045,-0.3054 0.0441,-0.392 0.0276,-0.4891 -0.032,-0.1879 -0.0898,-0.3755 -0.1757,-0.6312"/><path id="path60" style="fill:#000000;fill-opacity:1;fill-rule:nonzero;stroke:none" d="m 155.9928,771.5101 c -0.4327,0.0802 -0.7185,0.4961 -0.6383,0.9288 0.0802,0.4327 0.4961,0.7185 0.9288,0.6383 0.5196,-0.0963 0.9053,-0.1799 1.3859,-0.225 0.2296,-0.0215 0.5027,-0.031 0.8515,-0.0357 0.9325,-0.0125 2.1198,0.0321 3.1016,0.1936 0.471,0.0775 0.8703,0.1842 1.1006,0.2923 0.1019,0.0479 0.1475,0.0858 0.15,0.0885 0.0131,0.0139 -0.0717,-0.3054 -0.0703,-0.2051 0.006,0.4401 0.3683,0.7916 0.8084,0.7852 0.4401,-0.006 0.7916,-0.3683 0.7852,-0.8083 -0.005,-0.3408 -0.1664,-0.6551 -0.362,-0.8633 -0.1905,-0.2026 -0.4088,-0.3339 -0.6338,-0.4396 -0.4506,-0.2116 -0.9645,-0.331 -1.5193,-0.4223 -1.1291,-0.1858 -2.3789,-0.2281 -3.3818,-0.2146 -0.3682,0.005 -0.6823,0.0148 -0.9788,0.0425 -0.5779,0.0542 -1.0295,0.1524 -1.5277,0.2447"/><path id="path62" style="fill:#000000;fill-opacity:1;fill-rule:nonzero;stroke:none" d="m 159.1644,775.5531 c -0.2785,-0.3408 -0.7805,-0.3913 -1.1213,-0.1128 -0.3408,0.2784 -0.3913,0.7805 -0.1128,1.1213 0.3078,0.3766 0.5284,0.3507 0.7443,0.4031 0.2186,0.0529 0.462,0.0907 0.7378,0.1248 0.5709,0.0707 1.2614,0.12 2.0025,0.1606 1.5056,0.0824 3.0928,0.1188 4.0915,0.1516 0.4398,0.0144 0.8081,-0.3305 0.8225,-0.7704 0.0144,-0.4398 -0.3304,-0.8081 -0.7703,-0.8225 -1.0105,-0.0332 -2.5844,-0.0695 -4.0566,-0.1501 -0.7215,-0.0395 -1.3859,-0.088 -1.8938,-0.1509 -0.2399,-0.0297 -0.436,-0.0624 -0.5583,-0.0921 -0.0545,-0.0132 -0.0831,-0.0232 -0.0855,-0.0242 -0.005,-0.002 0.0798,0.0457 0.0498,0.0268 -0.0339,-0.0213 0.2138,0.2125 0.1502,0.1348"/><path id="path64" style="fill:#000000;fill-opacity:1;fill-rule:nonzero;stroke:none" d="m 169.7855,775.9254 c -0.2241,-0.3787 -0.7128,-0.5041 -1.0916,-0.2799 -0.3787,0.2241 -0.5041,0.7128 -0.28,1.0916 0.1934,0.3267 0.4111,0.5946 0.7548,0.7781 0.182,0.0971 0.4603,0.2087 0.8214,0.079 0.1871,-0.0673 0.3576,-0.2097 0.4577,-0.3645 0.0968,-0.1495 0.1355,-0.2972 0.1519,-0.4242 0.1194,-0.9231 -0.4242,-1.4141 -0.935,-2.1501 -0.5292,-0.7625 -1.183,-1.5981 -1.8003,-2.4031 -0.5623,-0.7333 -1.1334,-1.3836 -1.5603,-1.9384 -0.5148,-0.6689 -0.8593,-1.2415 -0.9798,-1.4732 -0.0307,-0.059 -0.0534,-0.1033 -0.0565,-0.1098 -9e-4,-0.002 0.0651,0.2085 0.0372,0.1048 -0.0103,-0.0379 0.0282,0.2978 0.0265,0.1909 -0.007,-0.4401 -0.3688,-0.7914 -0.8089,-0.7847 -0.44,0.007 -0.7913,0.3689 -0.7846,0.8089 0.002,0.109 0.0178,0.1615 0.0284,0.2008 0.0309,0.1147 0.0485,0.1352 0.0627,0.1649 0.026,0.0547 0.0507,0.1009 0.0812,0.1596 0.1812,0.3482 0.5575,0.965 1.1307,1.7098 0.4704,0.6113 1.034,1.2519 1.5587,1.9362 0.621,0.8098 1.2638,1.6333 1.7556,2.342 0.236,0.34 0.4285,0.6429 0.5486,0.8738 0.0559,0.1074 0.0924,0.1939 0.1077,0.2417 0.007,0.0201 0.005,0.0127 0.006,0.0208 0.002,0.0121 0.008,-0.1556 0.001,-0.0995 -0.006,0.0495 0.1569,-0.3395 0.0906,-0.2371 -0.0705,0.1091 0.482,-0.3201 0.3414,-0.2695 -0.1363,0.0489 0.4132,-0.015 0.3347,-0.0296 -0.0716,-0.0133 0.1555,0.0563 0.1334,0.0445 -0.0562,-0.0299 -0.0523,-0.0461 -0.1338,-0.1838 m -4.9245,-7.6167 c -0.4022,-0.1787 -0.8731,0.002 -1.0518,0.4047 -0.1787,0.4022 0.002,0.8731 0.4047,1.0517 0.0602,0.0268 -0.153,-0.0889 -0.125,-0.0698 0.076,0.0521 -0.1236,-0.1056 -0.1091,-0.0908 0.0556,0.0566 0.0381,0.0501 0.1505,0.1934 0.1733,0.221 0.412,0.5453 0.713,0.9239 0.3558,0.4476 0.7579,0.999 1.2241,1.6596 0.9381,1.3292 1.9679,3.0289 2.8779,4.3657 0.5586,0.8207 0.9512,1.4288 1.4822,1.8224 0.1458,0.1081 0.3212,0.2031 0.5358,0.2449 0.2195,0.0426 0.4755,0.0137 0.6843,-0.0874 0.4055,-0.1963 0.5758,-0.5398 0.6807,-0.8459 0.5198,-1.5174 0.3871,-3.9101 0.4569,-6.1425 0.034,-1.087 0.0942,-2.0671 0.2322,-2.7087 0.0625,-0.2909 0.1508,-0.4773 0.1629,-0.4933 0.004,-0.005 -0.2385,0.1264 -0.1437,0.0923 0.0987,-0.0355 -0.2927,-0.004 -0.2517,0.0101 0.4169,0.1412 0.8692,-0.0823 1.0104,-0.4991 0.1412,-0.4169 -0.0823,-0.8692 -0.4992,-1.0104 -0.4829,-0.1635 -1.1154,0.0883 -1.3849,0.443 -0.2579,0.3395 -0.3641,0.7139 -0.452,1.1223 -0.1807,0.8401 -0.232,1.8751 -0.267,2.994 -0.071,2.2734 -0.0496,4.7357 -0.3716,5.6757 -0.0151,0.044 -0.008,0.0332 -0.0176,0.0468 -0.0144,0.0205 0.2413,-0.1629 0.1502,-0.1188 -0.0963,0.0466 0.4024,-0.0255 0.3144,-0.0426 -0.0798,-0.0155 0.1117,0.0413 0.109,0.0393 -0.1503,-0.1114 -0.5735,-0.6452 -1.1139,-1.439 -0.8759,-1.2867 -1.9093,-2.9937 -2.8932,-4.3878 -0.4751,-0.6732 -0.8923,-1.2464 -1.2786,-1.7323 -0.2817,-0.3544 -0.5103,-0.6654 -0.7064,-0.9156 -0.1284,-0.1637 0.006,-0.159 -0.3948,-0.4339 -0.0293,-0.0201 -0.0674,-0.0447 -0.1287,-0.0719"/><path id="path66" style="fill:#000000;fill-opacity:1;fill-rule:nonzero;stroke:none" d="m 168.0421,772.2497 c -0.381,-0.2204 -0.8685,-0.0903 -1.0889,0.2906 -0.2204,0.3809 -0.0903,0.8684 0.2907,1.0889 0.9417,0.5449 1.9251,0.1921 3.1514,0.0129 1.2872,-0.188 2.8705,-0.3652 4.7598,-0.1522 0.4373,0.0494 0.8318,-0.2652 0.8811,-0.7025 0.0494,-0.4373 -0.2652,-0.8319 -0.7025,-0.8812 -2.0839,-0.235 -3.8307,-0.0366 -5.1688,0.1589 -1.2464,0.1821 -2.0847,0.2067 -2.1228,0.1846"/><path id="path68" style="fill:#000000;fill-opacity:1;fill-rule:nonzero;stroke:none" d="m 179.473,778.7221 c 0.4018,-0.1796 0.5819,-0.6509 0.4023,-1.0527 -0.1795,-0.4018 -0.6509,-0.5819 -1.0526,-0.4023 -0.096,0.0429 0.5246,-0.01 0.386,-0.0389 -0.1017,-0.0216 0.2911,0.1458 0.2372,0.1057 -0.0733,-0.0546 0.1061,0.1108 0.1007,0.1021 -0.002,-0.003 -0.0102,-0.0183 -0.0254,-0.0581 -0.0653,-0.1707 -0.1431,-0.5331 -0.1987,-0.9873 -0.1183,-0.9663 -0.1534,-2.248 -0.1091,-3.5015 0.0438,-1.2399 0.1675,-2.3937 0.3557,-3.0477 0.0417,-0.1448 0.0848,-0.2507 0.1101,-0.2976 0.01,-0.0186 -0.0137,0.0112 1e-4,-0.005 0.0175,-0.0202 -0.2101,0.1391 -0.1334,0.1 0.0825,-0.0421 -0.4335,0.05 -0.3192,0.0604 0.0839,0.008 -0.2515,-0.0829 -0.2031,-0.0579 0.0659,0.0341 -0.0862,-0.0603 -0.0847,-0.0586 0.006,0.007 0.0309,0.0389 0.0634,0.0941 0.2229,0.3795 0.7112,0.5065 1.0907,0.2837 0.3795,-0.2229 0.5065,-0.7112 0.2836,-1.0907 -0.1283,-0.2186 -0.2702,-0.4214 -0.5186,-0.5843 -0.262,-0.1718 -0.7207,-0.2274 -1.036,-0.0666 -0.5777,0.2946 -0.6595,0.7472 -0.7845,1.1815 -0.2598,0.9028 -0.3705,2.1198 -0.4169,3.4321 -0.0467,1.3233 -0.0133,2.6631 0.1199,3.7514 0.0641,0.5235 0.1431,0.9735 0.2921,1.363 0.0744,0.1947 0.1606,0.3938 0.3713,0.5898 0.2274,0.2116 0.7291,0.3371 1.0691,0.1851"/><path id="path70" style="fill:#000000;fill-opacity:1;fill-rule:nonzero;stroke:none" d="m 175.7721,777.7542 c -0.4318,-0.0852 -0.8508,0.1958 -0.936,0.6276 -0.0851,0.4318 0.1959,0.8508 0.6277,0.936 0.5176,0.1021 1.0207,0.2143 1.7113,0.1839 1.0376,-0.0457 2.3874,-0.3175 3.8492,-0.8653 2.389,-0.8952 4.3964,-2.594 5.4604,-4.4143 0.4542,-0.7769 0.7941,-1.6036 0.7906,-2.473 -0.003,-0.692 -0.2571,-1.4307 -0.8109,-1.9874 -0.9506,-0.9555 -2.4287,-1.237 -3.82,-1.4757 -0.977,-0.1676 -1.9307,-0.1816 -2.722,-0.1811 -0.5788,4e-4 -1.0753,0.0209 -1.5081,0.0931 -0.4233,0.0706 -0.8473,0.1649 -1.1834,0.5638 -0.175,0.2077 -0.2789,0.5067 -0.2731,0.7766 0.006,0.2631 0.0889,0.4857 0.1924,0.681 0.206,0.3887 0.5209,0.732 0.9351,1.1256 0.3191,0.3032 0.8235,0.2903 1.1266,-0.0288 0.3032,-0.319 0.2903,-0.8234 -0.0288,-1.1266 -0.3502,-0.3327 -0.5607,-0.5957 -0.6247,-0.7166 -0.0236,-0.0445 -0.006,0.1024 -0.007,0.0314 -0.002,-0.0831 -0.16,0.3537 -0.1015,0.2843 0.0513,-0.0609 -0.0767,0.062 -0.0429,0.0483 0.0443,-0.0181 0.1379,-0.045 0.2697,-0.067 0.2873,-0.0479 0.7145,-0.0709 1.247,-0.0713 0.7613,-5e-4 1.6275,0.0168 2.4514,0.1581 1.2945,0.222 2.5278,0.5949 2.9597,1.029 0.2545,0.2558 0.3456,0.5201 0.347,0.8697 0.002,0.4443 -0.2038,1.0311 -0.5728,1.6624 -0.8398,1.4367 -2.6142,2.9656 -4.6437,3.7261 -1.314,0.4924 -2.5358,0.7292 -3.3601,0.7655 -0.5034,0.0221 -0.7953,-0.0493 -1.3329,-0.1553"/><path id="path72" style="fill:#000000;fill-opacity:1;fill-rule:nonzero;stroke:none" d="m 188.7469,776.9498 c 0.1543,-0.4122 -0.0548,-0.8714 -0.4669,-1.0257 -0.4122,-0.1542 -0.8714,0.0548 -1.0257,0.467 -0.0226,0.0604 -0.0449,0.1163 -0.0639,0.2233 -0.0106,0.0605 -0.0336,0.1385 0.003,0.3176 0.043,0.2114 0.4229,0.6546 0.8089,0.644 0.6144,-0.0167 0.5579,-0.238 0.612,-0.3006 0.049,-0.0566 0.081,-0.1025 0.1132,-0.1507 0.1298,-0.194 0.2669,-0.4509 0.4117,-0.7749 0.4975,-1.1131 0.7149,-2.6345 0.8187,-4.0743 0.051,-0.7074 0.0646,-1.368 0.0326,-1.9263 -0.0308,-0.5364 0.1006,-0.9543 -0.448,-1.4809 -0.3175,-0.3047 -0.8219,-0.2944 -1.1267,0.0231 -0.3048,0.3175 -0.2944,0.8219 0.0231,1.1267 0.0507,0.0487 -0.11,-0.1431 -0.0937,-0.116 0.0439,0.0735 -0.0126,-0.0262 0.006,0.0742 0.0201,0.1118 0.0377,0.2724 0.0486,0.464 0.0266,0.4629 0.016,1.068 -0.031,1.7206 -0.096,1.3311 -0.3399,2.7683 -0.6841,3.5387 -0.1143,0.2558 -0.2305,0.463 -0.2813,0.5388 -0.009,0.0134 0.0262,-0.0289 0.007,-0.006 -0.0127,0.0147 0.129,-0.1168 0.0799,-0.0768 -0.0273,0.0223 0.1902,-0.1166 0.1272,-0.0837 -0.0335,0.0176 0.1825,-0.07 0.1287,-0.0532 -0.0562,0.0176 0.3,-0.0378 0.2133,-0.0354 -0.0903,0.003 0.4112,0.0928 0.3042,0.0519 -0.0946,-0.0362 0.3261,0.2242 0.2551,0.1585 -0.1208,-0.1118 0.2433,0.4206 0.2121,0.3277 -0.0429,-0.1278 0.0391,0.3194 0.0404,0.2637 0.001,-0.0509 -0.0146,0.1305 -0.0104,0.1068 0.0121,-0.0685 -0.0177,0.0709 -0.013,0.0583"/><path id="path74" style="fill:#000000;fill-opacity:1;fill-rule:nonzero;stroke:none" d="m 194.7086,775.9516 c -0.004,-0.44 -0.3645,-0.7933 -0.8046,-0.789 -0.4401,0.004 -0.7934,0.3646 -0.789,0.8047 0.002,0.2206 0.001,0.384 -0.002,0.4863 -0.002,0.0457 -0.004,0.0759 -0.004,0.079 -1e-4,10e-4 0.012,-0.0663 0.006,-0.0382 -0.003,0.016 0.0298,-0.1062 0.0189,-0.0721 -0.0119,0.0373 0.1347,-0.2587 0.0815,-0.1743 -0.029,0.0461 0.2104,-0.2292 0.1402,-0.1662 -0.0698,0.0627 0.4428,-0.2105 0.3073,-0.1709 -0.1302,0.038 0.5382,0.0217 0.4101,-0.009 -0.1167,-0.0284 0.3425,0.1748 0.2754,0.1265 -0.1171,-0.0842 0.2356,0.2646 0.2016,0.2117 -0.0532,-0.0823 0.0872,0.1854 0.0767,0.1558 -0.025,-0.0712 0.0188,0.0668 0.016,0.0507 -0.007,-0.0438 -0.0205,-0.1455 -0.034,-0.2787 -0.0612,-0.6026 -0.1287,-1.655 -0.1711,-2.7819 -0.0415,-1.1035 -0.0362,-2.2296 -0.0368,-3.1275 -2e-4,-0.3822 -0.0115,-0.6971 -0.001,-0.8731 0.006,-0.1053 0.008,-0.1239 0.0207,-0.151 0.005,-0.0109 -0.0583,0.0932 -0.0365,0.0621 0.0241,-0.0344 -0.2155,0.1988 -0.1386,0.1412 0.041,-0.0307 -0.2281,0.1178 -0.1608,0.0905 0.0697,-0.0282 -0.3424,0.0574 -0.2487,0.0536 0.095,-0.004 -0.3707,-0.0744 -0.2825,-0.043 0.0868,0.031 -0.2722,-0.166 -0.2159,-0.1206 0.0601,0.0484 -0.1497,-0.1698 -0.124,-0.1325 0.0353,0.0511 -0.0572,-0.1104 -0.052,-0.0964 0.004,0.0105 -0.002,-0.006 0.001,0.009 0.0112,0.0495 0.026,0.1604 0.0365,0.3016 0.0223,0.3018 0.0287,0.7057 0.0477,1.1339 0.0238,0.5383 0.007,1.1947 -8e-4,1.9596 -0.008,0.8574 0,1.7837 0,2.656 0,1.1945 -0.0187,2.1863 0.0402,2.8788 0.0124,0.1456 0.0239,0.2778 0.0492,0.4169 0.0261,0.1439 -0.0105,0.3498 0.3407,0.6393 0.2051,0.1691 0.566,0.2125 0.7729,0.144 0.5074,-0.1681 0.4521,-0.3439 0.509,-0.4405 0.0733,-0.1243 0.131,-0.2499 0.1976,-0.4 0.1395,-0.314 0.3029,-0.721 0.4955,-1.1953 0.4017,-0.9886 0.8956,-2.193 1.4466,-3.2813 0.5496,-1.0854 1.287,-2.0232 2.0582,-2.7011 0.744,-0.654 1.5021,-1.0266 2.0172,-1.0723 0.1792,-0.0159 0.2884,0.015 0.351,0.0511 0.0587,0.0339 0.1085,0.0816 0.1565,0.2124 0.2383,0.6493 -0.3067,2.8043 -1.0975,4.5229 -0.3831,0.8325 -0.7872,1.5377 -1.0626,1.8881 -0.0595,0.0757 -0.1072,0.1246 -0.1201,0.1358 -0.003,0.002 0.0684,-0.0419 0.0368,-0.0239 -0.0368,0.0209 0.335,-0.0834 0.2189,-0.0693 -0.0617,0.007 0.2964,0.024 0.2164,0.008 -0.1435,-0.0283 0.4634,0.2987 0.3751,0.2056 -0.063,-0.0664 0.1432,0.2281 0.1213,0.1792 -0.03,-0.0668 0.0381,0.1313 0.0363,0.1176 -0.001,-0.009 -5e-4,-0.003 0,-0.0288 0.008,-0.44 -0.3413,-0.8036 -0.7813,-0.8121 -0.44,-0.009 -0.8036,0.3413 -0.8121,0.7813 -0.004,0.1801 -0.004,0.3642 0.1085,0.6064 0.1239,0.2668 0.5744,0.5676 0.928,0.5246 0.608,-0.0738 0.7248,-0.3848 0.9252,-0.6398 0.4157,-0.5289 0.8396,-1.2989 1.2574,-2.2067 0.86,-1.869 1.7653,-4.0506 1.1459,-5.7383 -0.1597,-0.4351 -0.4623,-0.8162 -0.8556,-1.0434 -0.3916,-0.2262 -0.8472,-0.2977 -1.2889,-0.2585 -1.0209,0.0905 -2.0135,0.6583 -2.9287,1.4628 -0.9347,0.8217 -1.7861,1.9109 -2.4278,3.1781 -0.5895,1.1644 -1.0963,2.4048 -1.5012,3.4015 -0.193,0.4751 -0.3549,0.8765 -0.4756,1.1483 -0.0553,0.1246 -0.101,0.2154 -0.1139,0.2374 -0.002,0.003 0.0158,-0.0227 0.008,-0.0114 -0.007,0.01 0.0595,-0.0711 0.0388,-0.0481 -0.0168,0.0187 0.1117,-0.1014 0.0757,-0.072 -0.0286,0.0234 0.1693,-0.1065 0.1175,-0.0785 -0.0828,0.0446 0.5447,-0.0903 0.3769,-0.0923 -0.0864,-10e-4 0.3519,0.0822 0.2657,0.0499 -0.0858,-0.0322 0.2828,0.1784 0.2223,0.1285 -0.0797,-0.0657 0.1843,0.2265 0.1549,0.178 -0.04,-0.066 0.0628,0.1431 0.057,0.1238 -0.005,-0.0154 0.004,0.0147 0.002,0.004 -0.007,-0.0391 -0.0183,-0.1376 -0.0293,-0.2672 -0.0462,-0.5438 -0.0345,-1.5421 -0.0345,-2.7438 0,-0.8807 -0.008,-1.803 0,-2.6405 0.007,-0.7528 0.0266,-1.4272 -7e-4,-2.0455 -0.0178,-0.4021 -0.0231,-0.8107 -0.0505,-1.1812 -0.0136,-0.1826 -0.0309,-0.3554 -0.0708,-0.5329 -0.0407,-0.1814 -0.0651,-0.4174 -0.3802,-0.6714 -0.1357,-0.1094 -0.3529,-0.1968 -0.5669,-0.1881 -0.2094,0.009 -0.3739,0.0926 -0.4815,0.1732 -0.1973,0.1479 -0.2622,0.2869 -0.317,0.4063 -0.1059,0.2304 -0.1485,0.4618 -0.1637,0.7243 -0.0175,0.3022 -10e-4,0.6166 -10e-4,0.9663 5e-4,0.894 -0.005,2.0398 0.0379,3.1865 0.0434,1.1546 0.1108,2.2199 0.1781,2.8831 0.0155,0.1519 0.0297,0.2753 0.0486,0.3858 0.01,0.0554 0.0152,0.1046 0.05,0.2053 0.0202,0.0583 0.0116,0.1485 0.2217,0.3415 0.1253,0.1153 0.4297,0.2652 0.7383,0.1871 0.2948,-0.0746 0.4203,-0.2525 0.4822,-0.3509 0.3204,-0.5086 0.1372,-0.4555 0.1418,-0.5896 0.005,-0.1415 0.006,-0.322 0.003,-0.5562"/><path id="path76" style="fill:#000000;fill-opacity:1;fill-rule:nonzero;stroke:none" d="m 211.223,775.2644 c 0.142,-0.4166 -0.0805,-0.8694 -0.497,-1.0115 -0.4166,-0.142 -0.8694,0.0805 -1.0115,0.497 -0.3522,1.033 -0.4249,1.7165 -0.549,1.8773 -0.0675,0.0875 -0.2922,0.2227 -0.6868,0.2 -0.3389,-0.0195 -0.5938,-0.0533 -0.8122,-0.1885 -0.2965,-0.1836 -0.6848,-0.7451 -0.944,-1.4889 -0.267,-0.7658 -0.4068,-1.6621 -0.3787,-2.4562 0.0214,-0.6058 0.1525,-1.1384 0.3992,-1.5467 0.3752,-0.6207 1.5676,-1.0762 2.6455,-1.2204 0.6752,-0.0904 1.2468,0.0168 1.4707,0.1442 0.0255,0.0145 -0.0308,-0.048 -0.028,0 0.003,0.0485 -0.006,0.0384 -0.1108,0.1839 -0.1155,0.1601 -0.3076,0.3517 -0.5364,0.5302 -0.3134,0.2446 -0.8271,0.4443 -1.3514,0.6135 -0.359,0.1159 -0.7116,0.2016 -0.978,0.2449 -0.1245,0.0202 -0.2238,0.0287 -0.2673,0.029 -0.0163,10e-5 0.054,0.0104 0.0191,0.004 -0.0207,-0.004 0.1448,0.0462 0.0984,0.0283 -0.0504,-0.0194 0.2818,0.1904 0.2009,0.121 -0.11,-0.0942 0.28,0.5662 0.2447,0.4079 -0.0346,-0.1547 -0.0419,0.4676 -0.014,0.3774 0.0257,-0.0832 -0.104,0.2058 -0.0805,0.1707 0.0215,-0.032 -0.057,0.0703 -0.0472,0.06 0.0256,-0.027 0.0294,-0.0249 0.1409,-0.0873 0.0638,-0.0356 0.9741,-0.0574 1.8896,-0.0682 1.0018,-0.0118 1.8271,-0.0204 2.2457,0.0996 0.423,0.1213 0.8643,-0.1233 0.9856,-0.5463 0.1213,-0.4231 -0.1233,-0.8644 -0.5463,-0.9857 -0.8112,-0.2326 -1.7098,-0.173 -2.7037,-0.1613 -0.8706,0.0103 -1.7853,-0.2121 -2.6489,0.271 -0.1996,0.1116 -0.364,0.2181 -0.5177,0.3798 -0.0806,0.0846 -0.1754,0.1877 -0.2402,0.3971 -0.0351,0.1136 -0.0574,0.2673 -0.0188,0.4405 0.0394,0.1765 0.1487,0.3479 0.2736,0.4549 0.3586,0.3074 0.5593,0.2313 0.7295,0.2302 0.1675,-10e-4 0.3329,-0.0205 0.5118,-0.0496 0.3666,-0.0594 0.7825,-0.1626 1.2123,-0.3013 0.5758,-0.1858 1.2532,-0.4141 1.8423,-0.8736 0.3201,-0.2498 0.6142,-0.5296 0.8485,-0.8543 0.2351,-0.3259 0.4382,-0.7225 0.4093,-1.2104 -0.0273,-0.4618 -0.2675,-1.0027 -0.7751,-1.2914 -0.6796,-0.3866 -1.5409,-0.4629 -2.47,-0.3385 -1.3096,0.1753 -2.9705,0.6067 -3.798,1.9757 -0.4241,0.7016 -0.5995,1.5087 -0.628,2.3148 -0.0359,1.0133 0.1316,2.0766 0.4664,3.0371 0.3313,0.9503 0.8095,1.8237 1.61,2.3193 0.5735,0.3551 1.1598,0.4016 1.5597,0.4246 0.8087,0.0465 1.5841,-0.2265 2.0401,-0.8175 0.5757,-0.7461 0.5145,-1.5121 0.7957,-2.3364"/><path id="path78" style="fill:#000000;fill-opacity:1;fill-rule:nonzero;stroke:none" d="m 219.184,778.6832 c -0.1816,0.4009 -0.004,0.8731 0.397,1.0548 0.4008,0.1816 0.8731,0.004 1.0547,-0.397 0.3313,-0.7311 0.1982,-1.4858 0.1828,-2.5111 -0.0158,-1.0556 -0.046,-2.2208 0.0173,-3.193 0.0286,-0.4392 -0.3043,-0.8183 -0.7435,-0.8469 -0.4391,-0.0286 -0.8183,0.3043 -0.8469,0.7434 -0.1416,2.1774 -0.0145,5.0465 -0.0614,5.1498"/><path id="path80" style="fill:#000000;fill-opacity:1;fill-rule:nonzero;stroke:none" d="m 220.0157,770.0872 c 0.4132,-0.1513 0.6257,-0.609 0.4744,-1.0223 -0.1513,-0.4132 -0.6089,-0.6256 -1.0222,-0.4744 -0.002,8e-4 0.0518,-0.0122 0.0287,-0.007 -0.0266,0.006 0.2092,-0.007 0.14,-0.0101 -0.0752,-0.004 0.4091,0.1429 0.2951,0.0822 -0.1177,-0.0627 0.3534,0.3915 0.2901,0.2811 -0.0607,-0.1058 0.0965,0.336 0.0889,0.2683 -0.0103,-0.0918 -0.007,0.1743 -0.003,0.155 0.003,-0.0144 -0.002,0.008 0.004,-0.009 0.0417,-0.1282 0.197,-0.4383 0.3018,-0.8174 0.1172,-0.4242 -0.1317,-0.8631 -0.5559,-0.9803 -0.4242,-0.1172 -0.8631,0.1317 -0.9803,0.5559 -0.05,0.1808 -0.1812,0.4414 -0.2812,0.7487 -0.053,0.1629 -0.2325,0.3896 0.0444,0.8718 0.1535,0.2677 0.5008,0.4252 0.7237,0.4355 0.2041,0.009 0.3359,-0.0353 0.4524,-0.0779"/><path id="path82" style="fill:#000000;fill-opacity:1;fill-rule:nonzero;stroke:none" d="m 72.1817,706.6606 c -0.14711,0.4147 0.06989,0.8703 0.48468,1.0174 0.41479,0.1471 0.87029,-0.0699 1.0174,-0.4847 0.11766,-0.3318 0.08603,-0.7968 -0.14393,-1.1149 -0.22272,-0.308 -0.52499,-0.4532 -0.8167,-0.5466 -0.58547,-0.1875 -1.28558,-0.2047 -2.14723,-0.1503 -0.68183,0.0431 -1.55561,0.0662 -2.56889,0.253 -1.74287,0.3212 -3.69543,1.1164 -6.06685,2.0805 -1.52131,0.6186 -3.24019,1.2964 -5.075,2.1101 -1.76482,0.7827 -3.60744,1.7119 -5.58117,2.7344 -2.09682,1.0863 -4.38414,2.233 -6.73494,3.5399 -2.27788,1.2664 -4.52964,2.7732 -6.93253,4.3033 -0.88083,0.5609 -1.8222,1.1231 -2.80536,1.7193 -1.64115,0.9952 -3.1154,2.0809 -4.46191,3.056 -1.59255,1.1533 -3.36383,2.1922 -5.15309,3.3327 -3.07691,1.9613 -5.53566,4.1876 -7.42315,6.2375 -0.9479,1.0295 -2.00943,1.9474 -3.04695,2.9106 -1.4428,1.3395 -2.17835,2.9868 -2.62573,4.3776 -0.62724,1.9499 -0.48551,4.0174 0.72742,5.6394 0.7822,1.046 1.96874,1.6838 3.09187,2.2655 0.44836,0.2322 0.89789,0.4684 1.36954,0.6495 1.70744,0.6556 3.78374,0.9871 6.29101,1.1023 1.05298,0.0483 2.19635,0.0245 3.4509,7e-4 0.74373,-0.0142 1.54957,0.0257 2.41791,-3e-4 0.99105,-0.0295 1.98179,-0.1339 2.97368,-0.2388 1.26305,-0.1337 2.55769,-0.2958 3.86509,-0.4795 1.17014,-0.1645 2.36889,-0.3392 3.58874,-0.5447 1.03182,-0.1739 2.07433,-0.3902 3.15248,-0.6196 1.37074,-0.2916 2.84389,-0.5559 4.40384,-0.8797 2.57016,-0.5335 5.10089,-1.3125 7.61986,-2.1291 1.43437,-0.465 2.95287,-0.8902 4.51588,-1.3881 1.20427,-0.3836 2.34214,-0.8362 3.44095,-1.2706 3.74002,-1.4785 7.24351,-3.0368 10.26852,-4.6928 0.89706,-0.4911 1.69844,-0.9903 2.40604,-1.4663 3.88888,-2.6159 6.53457,-5.3383 7.81064,-8.0152 1.19481,-2.5064 0.7988,-5.0484 -0.17575,-6.9828 -0.78917,-1.5665 -2.02259,-2.7388 -3.04854,-3.6674 -0.49209,-0.4454 -0.92572,-0.8235 -1.21077,-1.1245 -0.13245,-0.14 -0.22343,-0.2566 -0.26296,-0.3233 -0.0166,-0.028 -0.01422,-0.0212 -0.01719,-0.031 -0.0045,-0.0147 0.0042,0.1664 0.0088,0.1104 0.03608,-0.4386 -0.29025,-0.8234 -0.72888,-0.8595 -0.43862,-0.0361 -0.82343,0.2903 -0.8595,0.7289 -0.05647,0.6866 0.34313,1.0907 0.70234,1.4701 0.36647,0.3871 0.81745,0.7749 1.29861,1.2105 0.98511,0.8917 2.06038,1.9436 2.69473,3.2028 0.81295,1.6137 1.12165,3.5636 0.16044,5.58 -1.09812,2.3036 -3.53094,4.8692 -7.26152,7.3786 -0.67315,0.4528 -1.43296,0.926 -2.28182,1.3907 -2.9429,1.6111 -6.39149,3.1469 -10.08914,4.6087 -1.09703,0.4337 -2.20041,0.8716 -3.33871,1.2341 -1.5319,0.488 -3.05118,0.9133 -4.52368,1.3906 -2.49968,0.8104 -4.97663,1.5708 -7.45228,2.0847 -1.53599,0.3188 -3.00906,0.583 -4.41159,0.8814 -1.07129,0.2279 -2.09216,0.4394 -3.08556,0.6068 -1.19795,0.2018 -2.38211,0.3745 -3.54578,0.538 -1.29146,0.1815 -2.56845,0.3413 -3.81106,0.4729 -0.9868,0.1044 -1.93913,0.2034 -2.85347,0.2307 -0.79452,0.0237 -1.5903,-0.0156 -2.40069,-2e-4 -1.25221,0.0238 -2.3671,0.0457 -3.34744,7e-4 -2.39931,-0.1102 -4.31078,-0.429 -5.79285,-0.9981 -0.35711,-0.1371 -0.76308,-0.3464 -1.20785,-0.5768 -1.07305,-0.5558 -2.04769,-1.135 -2.54851,-1.8047 -0.87889,-1.1753 -0.99965,-2.602 -0.48658,-4.197 0.4014,-1.2478 1.02679,-2.615 2.19288,-3.6976 1.01482,-0.9421 2.11167,-1.8876 3.13506,-2.999 1.8093,-1.965 4.1668,-4.0987 7.10737,-5.9732 1.76216,-1.1232 3.55947,-2.1752 5.23118,-3.3858 1.34924,-0.977 2.7868,-2.034 4.35352,-2.984 0.97881,-0.5936 1.92925,-1.161 2.83502,-1.7378 2.41743,-1.5393 4.64738,-3.0296 6.85092,-4.2546 2.3152,-1.2872 4.58625,-2.426 6.69364,-3.5178 1.96214,-1.0165 3.7784,-1.9317 5.49416,-2.6926 1.79928,-0.7979 3.49921,-1.4685 5.02913,-2.0906 2.35955,-0.9592 4.25208,-1.7124 5.75553,-1.9896 0.87994,-0.1622 1.66516,-0.1845 2.38046,-0.2297 0.75576,-0.0478 1.31742,-4e-4 1.56067,0.0775 0.04964,0.0159 0.07624,0.0301 0.07842,0.0314 0.0031,0.002 -0.10206,-0.117 -0.06713,-0.0687 0.03789,0.0524 -0.08688,-0.2845 -0.07907,-0.2094 0.0075,0.0719 0.019,-0.1609 0.0124,-0.1423"/><path id="path84" style="fill:#000000;fill-opacity:1;fill-rule:nonzero;stroke:none" d="m 89.70571,714.3951 c -0.4289,-0.0986 -0.85658,0.1691 -0.95526,0.598 -0.09868,0.4288 0.16902,0.8565 0.59792,0.9552 0.16454,0.0379 0.16355,0.0386 0.18202,0.0616 0.02552,0.0318 -0.02264,-0.0903 -0.03228,-0.0305 -0.03039,0.1884 -0.33604,0.7304 -0.99237,1.366 -0.72791,0.705 -1.82535,1.4937 -3.07593,2.3127 -1.24102,0.8127 -2.64864,1.6195 -4.18696,2.3625 -1.29028,0.6232 -2.66561,1.1615 -3.9371,1.6339 -1.48651,0.5522 -2.743,0.9569 -3.53692,1.1131 -0.22486,0.0442 -0.24695,0.054 -0.30199,0.0382 -0.02107,-0.006 0.14572,0.0733 0.10075,0.0458 -0.048,-0.0294 0.20469,0.2076 0.15505,0.1419 -0.05061,-0.067 0.12434,0.3054 0.10642,0.2276 -0.0174,-0.0755 0.0046,0.2372 0.01068,0.1894 0.01081,-0.085 -0.02973,0.1028 -0.01921,0.0853 0.01519,-0.0252 0.05509,-0.0802 0.12034,-0.1508 0.14327,-0.155 0.38469,-0.3643 0.71686,-0.6025 0.5682,-0.4073 1.35054,-0.8697 2.3121,-1.3688 0.98242,-0.5099 2.11036,-1.0564 3.37453,-1.5993 1.83654,-0.7887 3.92561,-1.5245 5.98306,-2.2212 1.96099,-0.6641 3.8824,-1.2494 5.68998,-1.7477 1.80215,-0.4969 3.44212,-0.8959 4.80397,-1.1747 1.22896,-0.2516 2.18772,-0.3632 2.8314,-0.3958 0.39433,-0.0199 0.55723,-0.0336 0.61603,-0.0195 0.0313,0.007 -0.29224,-0.1658 -0.1957,-0.095 0.0516,0.0379 -0.20393,-0.2295 -0.15607,-0.1606 0.0485,0.0698 -0.12364,-0.3092 -0.10429,-0.2307 0.0189,0.0767 -0.01474,-0.2575 -0.01835,-0.202 -0.0051,0.078 0.04081,-0.179 0.03088,-0.1524 -0.0084,0.0226 0.01183,-0.0268 0.0082,-0.0203 -0.15075,0.2675 -0.37691,0.6273 -0.7699,1.0008 -1.45161,1.3796 -5.04817,2.9412 -8.61268,4.604 -1.78275,0.8316 -3.49287,1.6436 -4.93748,2.2669 -1.07786,0.4651 -1.98031,0.8071 -2.58767,0.9843 -0.27304,0.0797 -0.47823,0.1006 -0.49049,0.1 -0.0056,-2e-4 0.13123,0.0295 0.08,0.015 -0.02831,-0.008 0.15411,0.0664 0.10942,0.0435 -0.04713,-0.0242 0.21912,0.171 0.1613,0.1155 -0.05996,-0.0575 0.20175,0.3223 0.16053,0.2293 -0.04144,-0.0935 0.06362,0.378 0.06261,0.2871 -9.8e-4,-0.0883 -0.05136,0.2786 -0.03281,0.2207 0.01764,-0.055 -0.07257,0.1542 -0.05522,0.1246 0.11865,-0.2022 3.85288,-2.1367 7.91514,-3.913 3.25002,-1.4212 6.81918,-2.7445 10.07183,-3.7732 2.3439,-0.7412 4.4215,-1.2536 5.9378,-1.5352 0.662,-0.1229 1.1764,-0.1694 1.4947,-0.1568 0.1951,0.008 0.1442,-0.033 0.2147,0.0139 0.0494,0.0328 -0.2273,-0.3761 -0.1828,-0.2477 0.0445,0.1286 0.008,-0.3595 -0.009,-0.3057 -0.0162,0.0484 -0.7532,0.6994 -1.9339,1.3844 -1.2496,0.725 -2.8248,1.5179 -4.4311,2.3312 -1.8992,0.9617 -3.7802,1.8728 -5.33671,2.5977 -0.74119,0.3453 -1.39549,0.6409 -1.921,0.8751 -0.51231,0.2284 -0.92295,0.3468 -1.21879,0.4589 -0.01677,0.006 -0.03584,0.014 -0.06233,0.0266 -0.39743,0.189 -0.56635,0.6645 -0.3773,1.0619 0.18905,0.3974 0.66449,0.5664 1.06192,0.3773 0.02508,-0.0119 -0.06993,0.0293 -0.0562,0.024 0.18217,-0.069 0.69302,-0.2218 1.30151,-0.493 0.53182,-0.237 1.19419,-0.5363 1.94509,-0.886 1.574,-0.7331 3.46791,-1.6505 5.38371,-2.6206 1.6071,-0.8137 3.2004,-1.6142 4.511,-2.3745 1.2554,-0.7284 2.2962,-1.2097 2.646,-2.259 0.0686,-0.2057 0.09,-0.4699 0.004,-0.7196 -0.0863,-0.2493 -0.2644,-0.4408 -0.4405,-0.5579 -0.3367,-0.2241 -0.677,-0.2654 -1.0347,-0.2795 -0.504,-0.0199 -1.1108,0.0454 -1.8485,0.1823 -1.596,0.2964 -3.725,0.823 -6.1274,1.5827 -3.30778,1.0461 -6.92053,2.3854 -10.22975,3.8324 -2.05309,0.8978 -3.99526,1.7657 -5.5621,2.5424 -0.75357,0.3736 -1.40371,0.7174 -1.92492,1.0363 -0.49847,0.305 -0.88777,0.517 -1.16413,0.9879 -0.06461,0.1101 -0.13345,0.2657 -0.13109,0.479 0.0025,0.2228 0.11694,0.472 0.26721,0.6161 0.27698,0.2658 0.50983,0.2604 0.68124,0.2681 0.3286,0.0147 0.63713,-0.0539 1.00831,-0.1623 0.71481,-0.2086 1.65627,-0.5692 2.77256,-1.0508 1.48319,-0.6399 3.20139,-1.4564 4.97986,-2.286 3.55061,-1.6562 7.17241,-3.1211 9.03691,-4.8931 0.5457,-0.5187 0.8703,-1.0362 1.0604,-1.3735 0.0923,-0.1638 0.2354,-0.3951 0.1383,-0.789 -0.051,-0.2073 -0.1955,-0.4032 -0.3443,-0.5124 -0.1411,-0.1036 -0.2698,-0.1446 -0.3756,-0.17 -0.3847,-0.0922 -0.66782,-0.0426 -1.0681,-0.0223 -0.73941,0.0374 -1.77039,0.16 -3.07045,0.4261 -1.40633,0.2879 -3.07671,0.6948 -4.90794,1.1996 -1.83676,0.5064 -3.78644,1.1004 -5.77755,1.7746 -2.07286,0.7019 -4.19587,1.4483 -6.1008,2.2664 -1.30457,0.5603 -2.46774,1.1238 -3.47984,1.6491 -1.00742,0.5229 -1.84733,1.0156 -2.50651,1.4882 -0.39471,0.283 -0.71212,0.5492 -0.95881,0.8161 -0.24078,0.2606 -0.45732,0.5192 -0.51159,0.9461 -0.02883,0.2269 0.0245,0.5227 0.19244,0.7449 0.16496,0.2183 0.38738,0.3293 0.57657,0.3835 0.36157,0.1037 0.68668,0.0647 1.04867,-0.006 0.96432,-0.1897 2.258,-0.6159 3.78437,-1.1829 1.29319,-0.4805 2.71239,-1.0345 4.07523,-1.6928 1.60256,-0.774 3.06871,-1.6141 4.36699,-2.4643 1.28913,-0.8443 2.45044,-1.6672 3.31152,-2.5012 0.78242,-0.7577 1.32817,-1.4579 1.45704,-2.2571 0.0652,-0.4043 -0.02129,-0.8754 -0.29772,-1.2202 -0.27391,-0.3416 -0.66576,-0.5252 -1.06811,-0.6178 m 4.15437,8.6348 c -0.43893,-0.0321 -0.8208,0.2977 -0.85293,0.7366 -0.03214,0.4389 0.29763,0.8208 0.73656,0.8529 0.1049,0.008 0.12942,-10e-5 0.15804,-0.003 0.06431,-0.007 0.11144,-0.0158 0.17322,-0.0281 0.13101,-0.0261 0.31101,-0.0687 0.55565,-0.1356 0.60926,-0.1667 1.44334,-0.541 2.5473,-1.0275 1.15598,-0.5095 2.53025,-1.1249 4.03058,-1.752 2.3077,-0.9645 4.7948,-1.9725 7.0893,-2.8039 2.5035,-0.907 4.6611,-1.5067 6.2405,-1.8344 0.6119,-0.127 1.1251,-0.1911 1.5217,-0.2204 0.3798,-0.028 0.6774,-0.0379 0.6928,-0.0357 0.0102,10e-4 -0.2174,-0.0848 -0.1334,-0.0442 0.0467,0.0225 -0.2308,-0.1761 -0.1684,-0.117 0.065,0.0616 -0.2112,-0.3505 -0.1703,-0.2499 0.0409,0.1005 -0.0496,-0.3771 -0.0524,-0.2912 -0.003,0.0821 0.0498,-0.2355 0.0343,-0.1902 -0.0279,0.0813 0.0509,-0.1059 0.0502,-0.1051 -0.2346,0.3177 -1.7955,1.2495 -3.5037,2.1806 -1.9274,1.0506 -4.1071,2.0465 -5.7667,2.7515 -0.5971,0.2537 -1.0937,0.4264 -1.4702,0.5509 -0.2793,0.0924 -0.4945,0.1648 -0.6114,0.201 -0.0252,0.008 -0.0433,0.013 -0.048,0.0143 -0.001,3e-4 0.0247,-0.006 0.0133,-0.003 -0.0137,0.003 0.1611,-0.0179 0.0979,-0.0135 -0.0224,0.001 0.1325,0.001 0.0917,-9e-4 -0.0441,-0.002 0.2849,0.0627 0.194,0.0345 -0.4203,-0.1304 -0.8668,0.1047 -0.9972,0.525 -0.1303,0.4203 0.1047,0.8668 0.525,0.9972 0.1758,0.0545 0.2453,0.0376 0.296,0.0341 0.2322,-0.0159 0.2266,-0.0428 0.2988,-0.0652 0.1523,-0.0472 0.3644,-0.119 0.6405,-0.2103 0.3985,-0.1318 0.9425,-0.3209 1.5928,-0.5971 1.6962,-0.7206 3.9093,-1.7305 5.9063,-2.819 1.7181,-0.9365 3.283,-1.6312 4.023,-2.6332 0.0616,-0.0834 0.1254,-0.1795 0.175,-0.3239 0.0529,-0.154 0.0858,-0.3943 -0.0128,-0.6368 -0.0988,-0.243 -0.2963,-0.3963 -0.4447,-0.4679 -0.1382,-0.0667 -0.2483,-0.0866 -0.3432,-0.0996 -0.3534,-0.0485 -0.6504,-0.003 -1.0265,0.0253 -0.4644,0.0342 -1.0461,0.1077 -1.7281,0.2492 -1.67,0.3465 -3.89,0.9656 -6.4597,1.8966 -2.3338,0.8456 -4.8404,1.8619 -7.161,2.8318 -3.01695,1.261 -5.50101,2.4712 -6.38383,2.7127 -0.2164,0.0592 -0.36531,0.0937 -0.4459,0.1097 -0.03415,0.007 -0.0071,0.004 -0.03073,0.006 -0.01388,0.002 0.22533,0.006 0.12664,-10e-4 m 10.51812,-1.1657 c -0.2159,0.3836 -0.0799,0.8694 0.3037,1.0853 0.3835,0.2158 0.8694,0.0798 1.0852,-0.3037 0.0439,-0.078 -0.1423,0.185 -0.1124,0.1531 0.0279,-0.0297 -0.0849,0.0784 -0.0672,0.0636 0.0554,-0.0465 -0.1009,0.071 -0.0879,0.0631 0.0109,-0.007 -0.0138,0.008 -0.0127,0.007 0.2861,-0.1522 1.1916,-0.5233 2.409,-0.9984 1.2872,-0.5023 2.8727,-1.1027 4.5844,-1.7443 2.6855,-1.0065 5.5483,-1.979 7.9351,-2.7323 1.3596,-0.4291 2.5223,-0.7713 3.2356,-0.9358 0.2969,-0.0684 0.5292,-0.1275 0.6481,-0.1513 0.0248,-0.005 0.0403,-0.007 0.0405,-0.008 0.004,-5e-4 -0.1775,-0.005 -0.1012,8e-4 0.044,0.003 -0.305,-0.085 -0.2066,-0.0472 0.0529,0.0204 -0.2522,-0.1525 -0.1841,-0.1017 0.0709,0.0529 -0.2612,-0.322 -0.2034,-0.2254 0.0586,0.0979 -0.1179,-0.4178 -0.1062,-0.3141 0.017,0.1503 0.07,-0.4311 0.0406,-0.3497 -0.0273,0.0758 0.1029,-0.1937 0.0797,-0.1588 -0.0291,0.0438 0.0457,-0.0557 0.0432,-0.0535 -0.1126,0.0959 -0.8687,0.4185 -1.7075,0.8394 -2.4015,1.2049 -6.0127,2.9431 -8.8737,4.297 -0.9872,0.4672 -1.8335,0.8489 -2.4611,1.1616 -0.4394,0.2189 -0.7487,0.3793 -1.0085,0.6089 -0.0699,0.0618 -0.1583,0.1233 -0.2535,0.3298 -0.1128,0.2443 0.0573,0.927 0.3825,1.0867 0.5018,0.2466 0.6019,0.0789 0.7776,0.0364 1.0274,-0.2482 2.5996,-0.9425 4.7658,-1.8311 2.2715,-0.9318 5.0195,-2.1618 8.1879,-3.4993 3.231,-1.3639 6.8975,-2.8181 10.9438,-4.4015 0.9184,-0.3594 1.8643,-0.716 2.8405,-1.0863 4.561,-1.7304 9.478,-3.6387 14.4115,-5.3884 6.0479,-2.1449 11.9736,-4.0443 17.1291,-5.3399 2.7543,-0.6922 5.2047,-1.1579 7.4175,-1.3689 0.8067,-0.077 1.6224,-0.1155 2.4537,-0.1336 1.9527,-0.0424 3.5041,0.0107 4.5076,0.3655 0.698,0.2469 1.1637,0.5947 1.4101,0.9834 0.2411,0.3803 0.3265,0.8624 0.1794,1.5144 -0.1565,0.6932 -0.5798,1.5611 -1.3216,2.5591 -0.7819,1.0518 -1.9008,2.234 -3.3847,3.533 -1.6447,1.4398 -3.711,2.9486 -6.1176,4.5455 -2.4678,1.6374 -5.2731,3.3536 -8.3495,5.1718 -4.5616,2.696 -9.7573,5.5461 -15.5751,8.5626 -2.1116,1.0949 -4.3465,2.2334 -6.7153,3.4267 -4.3094,2.1709 -8.7339,4.245 -13.0396,6.2304 -1.942,0.8954 -3.8531,1.8048 -5.7685,2.6796 -2.2558,1.0303 -4.5709,2.0623 -6.9484,3.114 -3.9891,1.7647 -7.7948,3.339 -11.3102,4.7439 -4.5545,1.8203 -8.77707,3.4463 -12.57712,4.8395 -3.69802,1.3559 -6.9498,2.4752 -9.66211,3.3121 -1.95648,0.6037 -3.56709,1.0062 -4.80736,1.2359 -1.15293,0.2135 -1.96171,0.2497 -2.20586,0.2036 -0.09735,-0.0184 -0.16592,-0.0374 -0.19776,-0.0491 -0.02377,-0.009 0.08655,0.0747 0.04076,0.0337 -0.05242,-0.0469 0.15682,0.3102 0.13529,0.2258 -0.01989,-0.078 0.01004,0.1204 0.01136,0.1137 0.06556,-0.3324 1.17816,-1.6531 3.02012,-3.3671 1.17268,-1.0912 2.68466,-2.2827 4.47489,-3.5637 1.84001,-1.3167 3.95457,-2.7138 6.295,-4.1855 2.49917,-1.5714 5.2456,-3.3164 8.30596,-5.1506 5.86263,-3.5136 12.53133,-7.3057 19.83743,-11.4577 2.0075,-1.1408 4.0439,-2.2796 6.0683,-3.4235 1.737,-0.9816 3.3787,-1.9753 4.9355,-2.8978 3.7244,-2.207 7.5406,-4.3479 11.3036,-6.5393 2.0546,-1.1966 4.1224,-2.3588 6.1427,-3.5277 1.7321,-1.0022 3.3419,-2.0066 4.8393,-2.9346 6.8582,-4.2505 13.3925,-8.2003 19.1904,-12.0204 4.2691,-2.8129 8.1472,-5.5159 11.5414,-8.0356 2.1156,-1.5705 3.9829,-3.057 5.6078,-4.4429 0.9385,-0.8005 1.9106,-1.5854 2.8843,-2.4124 2.294,-1.9482 4.038,-3.7338 5.321,-5.2445 0.8319,-0.9795 1.4837,-1.8273 1.9055,-2.6159 0.4068,-0.7604 0.6461,-1.5753 0.319,-2.3272 -0.2513,-0.5776 -0.8503,-1.1935 -1.7324,-1.4032 -1.5038,-0.3574 -3.5592,-0.1841 -6.1752,0.3327 -2.3028,0.4549 -4.9414,1.2196 -7.837,2.2212 -2.9608,1.0242 -6.156,2.2867 -9.4982,3.7323 -1.3983,0.6048 -2.9043,1.1645 -4.4638,1.7925 -1.2051,0.4853 -2.3613,1.0443 -3.5244,1.5726 -1.4234,0.6465 -2.9403,1.2528 -4.5045,1.924 -2.6678,1.1448 -5.1525,2.4106 -7.4465,3.5918 -2.4867,1.2803 -5.0258,2.462 -7.5308,3.7283 -4.7639,2.4081 -9.0404,4.9205 -12.6965,7.2679 -0.8484,0.5446 -1.5911,1.1303 -2.2909,1.6588 -3.0355,2.2923 -5.6252,4.1944 -7.3369,6.0743 -1.1722,1.2874 -1.9393,2.5092 -2.2184,3.6905 -0.2718,1.1502 0.009,2.3243 0.773,3.1283 0.8046,0.8472 2.0218,1.3657 3.4727,1.6606 2.0219,0.4109 4.5708,0.4056 7.4859,-0.066 0.6757,-0.1093 1.3472,-0.2758 2.0323,-0.4519 8.3763,-2.1538 18.4875,-6.9008 25.7883,-11.0027 0.3837,-0.2156 0.52,-0.7014 0.3044,-1.0851 -0.2155,-0.3837 -0.7013,-0.52 -1.085,-0.3044 -7.2027,4.0468 -17.2668,8.7562 -25.4046,10.8486 -0.6716,0.1727 -1.2986,0.3265 -1.8899,0.4222 -2.7644,0.4473 -5.1409,0.4378 -6.9139,0.0775 -1.2448,-0.253 -2.1566,-0.6931 -2.6346,-1.1964 -0.41,-0.4317 -0.5496,-0.9363 -0.3776,-1.6642 0.1879,-0.7949 0.7897,-1.8242 1.8458,-2.984 1.5449,-1.6967 4.0845,-3.584 7.1189,-5.8755 0.7126,-0.5381 1.4211,-1.0949 2.1915,-1.5895 3.6155,-2.3213 7.8461,-4.8066 12.5545,-7.1866 2.4776,-1.2524 5.0206,-2.4359 7.5414,-3.7338 2.2865,-1.1773 4.737,-2.4248 7.3454,-3.5441 1.5436,-0.6624 3.0693,-1.2718 4.5351,-1.9375 1.1814,-0.5366 2.3176,-1.085 3.4607,-1.5453 1.5373,-0.6191 3.0538,-1.1821 4.5011,-1.8081 3.3118,-1.4325 6.4721,-2.6807 9.3865,-3.6889 2.8466,-0.9847 5.4236,-1.729 7.6248,-2.1639 2.5047,-0.4948 4.4123,-0.6036 5.4978,-0.3456 0.4596,0.1092 0.5248,0.2247 0.6396,0.4884 0.0364,0.0838 0.0332,0.3861 -0.2629,0.9397 -0.3269,0.6112 -0.918,1.3975 -1.715,2.3359 -1.2248,1.4422 -2.9077,3.1674 -5.1379,5.0615 -0.9559,0.8118 -1.9286,1.5972 -2.8869,2.4145 -1.5949,1.3604 -3.4345,2.8251 -5.5235,4.3758 -3.3664,2.4991 -7.2212,5.1861 -11.4683,7.9844 -5.7628,3.797 -12.2876,7.7416 -19.1531,11.9966 -1.4985,0.9287 -3.0935,1.9237 -4.7978,2.9098 -2.01,1.1629 -4.0794,2.326 -6.1467,3.5299 -3.7499,2.1839 -7.5696,4.3267 -11.3139,6.5455 -1.564,0.9267 -3.1953,1.914 -4.9072,2.8813 -2.0207,1.1419 -4.0582,2.2813 -6.0716,3.4254 -7.3074,4.1528 -13.9849,7.9497 -19.86933,11.4764 -3.08104,1.8466 -5.83906,3.5991 -8.33501,5.1684 -2.36002,1.484 -4.49951,2.8971 -6.37412,4.2386 -1.82748,1.3077 -3.3883,2.5348 -4.6331,3.6931 -1.87749,1.747 -3.23256,2.8793 -3.49806,4.2254 -0.06934,0.3515 0.03467,0.8706 0.35394,1.1564 0.30235,0.2706 0.61684,0.3359 0.92439,0.394 0.67626,0.1276 1.55171,0.027 2.79169,-0.2026 1.31981,-0.2444 2.98379,-0.662 4.98708,-1.2801 2.74983,-0.8485 6.02433,-1.976 9.74082,-3.3386 3.81751,-1.3997 8.0535,-3.0309 12.62,-4.8559 3.5287,-1.4103 7.3524,-2.992 11.3635,-4.7664 2.3805,-1.053 4.7012,-2.0875 6.9657,-3.1218 1.9293,-0.8811 3.842,-1.7913 5.7738,-2.682 4.313,-1.9888 8.7537,-4.0703 13.0892,-6.2543 2.3731,-1.1955 4.6133,-2.3368 6.7319,-3.4352 5.8386,-3.0273 11.0591,-5.8907 15.6524,-8.6054 3.0904,-1.8266 5.9175,-3.5556 8.4197,-5.2159 2.4445,-1.622 4.5636,-3.1662 6.2863,-4.6743 3.0412,-2.6623 4.7594,-4.9391 5.2111,-6.9404 0.2213,-0.9804 0.0967,-1.9542 -0.3879,-2.7186 -0.4842,-0.7638 -1.2833,-1.2996 -2.2248,-1.6326 -1.376,-0.4866 -3.0697,-0.4999 -5.0736,-0.4564 -0.8591,0.0187 -1.714,0.0588 -2.5704,0.1404 -2.3179,0.2211 -4.8448,0.7037 -7.6546,1.4098 -5.2291,1.3141 -11.1935,3.2272 -17.2735,5.3835 -4.9613,1.7596 -9.8891,3.6723 -14.4441,5.4004 -0.9748,0.3698 -1.9256,0.7282 -2.8559,1.0923 -4.0513,1.5853 -7.7292,3.0438 -10.9828,4.4173 -3.1846,1.3443 -5.9356,2.5753 -8.1729,3.4931 -2.1708,0.8905 -3.7922,1.5769 -4.5352,1.7564 -0.0397,0.01 -0.0264,0.009 -0.0434,0.0101 -0.0122,10e-4 0.1282,0.003 0.0821,0 -0.0518,-0.004 0.3877,0.1347 0.2607,0.0723 -0.0687,-0.0337 0.3033,0.2535 0.2268,0.1701 -0.059,-0.0643 0.1835,0.323 0.1477,0.2343 -0.0534,-0.1325 0.0393,0.4833 0.0515,0.3766 0.0115,-0.1015 -0.0895,0.2853 -0.0642,0.2305 0.0414,-0.0898 -0.1243,0.1852 -0.1009,0.1582 0.0207,-0.0239 -0.0421,0.0426 -0.0372,0.0383 0.007,-0.006 0.2798,-0.1852 0.6637,-0.3765 0.5835,-0.2908 1.4326,-0.6745 2.4322,-1.1475 2.8697,-1.3581 6.4835,-3.0974 8.9066,-4.3131 0.8653,-0.4341 1.7106,-0.4771 2.2765,-1.3275 0.0815,-0.1225 0.2687,-0.4743 0.0266,-0.8786 -0.2328,-0.3893 -0.5295,-0.3871 -0.6516,-0.3964 -0.2045,-0.0157 -0.28,0.014 -0.3753,0.0332 -0.1919,0.0385 -0.4133,0.0966 -0.6919,0.1608 -0.802,0.1849 -1.9786,0.5338 -3.3573,0.9689 -2.4136,0.7618 -5.297,1.7412 -8.0149,2.7599 -1.7152,0.6429 -3.3057,1.2451 -4.6044,1.7519 -1.2309,0.4803 -2.1077,0.8258 -2.5779,1.0759 -0.0358,0.0191 -0.0638,0.0219 -0.1755,0.1157 -0.0385,0.0323 -0.0998,0.0715 -0.1849,0.2227"/><path id="path86" style="fill:#000000;fill-opacity:1;fill-rule:nonzero;stroke:none" d="m 140.9495,714.5017 c -0.0891,-0.431 -0.5107,-0.7082 -0.9417,-0.6191 -0.431,0.089 -0.7082,0.5106 -0.6191,0.9416 0.0174,0.0845 0.0256,0.1116 -0.0489,0.2612 -0.0902,0.1809 -0.3224,0.4831 -0.7644,0.8882 -1.4043,1.2871 -4.1212,3.05 -6.8556,4.6847 -1.0921,0.6529 -2.1853,1.2331 -3.1314,1.7534 -0.7142,0.3927 -1.3083,0.7503 -1.7247,0.9993 -0.2675,0.1601 -0.4429,0.2608 -0.6039,0.3868 -0.045,0.0352 -0.1036,0.0183 -0.2447,0.2846 -0.0443,0.0834 -0.1121,0.22 -0.0904,0.4514 0.0355,0.38 0.4388,0.6669 0.6292,0.7079 0.1631,0.0351 0.2383,0.0173 0.2934,0.009 0.228,-0.0333 0.2602,-0.0722 0.3629,-0.1157 0.838,-0.3552 2.4817,-1.1409 4.6362,-2.1131 2.2508,-1.0157 4.9018,-2.1719 7.5908,-3.206 3.3952,-1.3056 6.6997,-2.3328 9.1827,-2.9937 0.9798,-0.2609 1.7947,-0.4364 2.3929,-0.5228 0.4238,-0.0612 0.7469,-0.1193 0.8788,-0.129 0.0244,-0.002 -0.007,-0.003 0.0128,-0.002 0.0126,9e-4 -0.0968,-0.0169 -0.0651,-0.01 0.0345,0.008 -0.199,-0.0781 -0.1401,-0.0494 0.0624,0.0304 -0.277,-0.2286 -0.2073,-0.1539 0.0714,0.0765 -0.1937,-0.3764 -0.162,-0.2768 0.0307,0.0969 -0.0283,-0.3255 -0.0325,-0.2565 -0.004,0.0652 0.0359,-0.1784 0.0257,-0.1452 -0.0217,0.0705 -0.5974,0.6561 -1.5675,1.3455 -1.4816,1.0528 -3.7848,2.1304 -6.0569,3.1886 -1.1434,0.5325 -2.2947,1.013 -3.3226,1.4414 -1.1915,0.4966 -2.1355,0.8788 -2.7392,1.1156 -0.1644,0.0645 -0.2929,0.1153 -0.3872,0.1534 -0.0444,0.0179 -0.0802,0.0326 -0.1112,0.0457 -0.0304,0.0129 0.0986,-0.1777 -0.2709,0.1698 -0.3207,0.3015 -0.3362,0.8058 -0.0347,1.1264 0.3015,0.3206 0.8058,0.3361 1.1264,0.0347 0.0786,-0.0739 -0.1562,0.1149 -0.1332,0.101 0.0689,-0.0415 -0.0753,0.0397 -0.072,0.0382 0.0159,-0.007 0.1956,-0.0799 0.4647,-0.1855 0.6192,-0.2429 1.5706,-0.6282 2.7704,-1.1282 1.0305,-0.4295 2.2022,-0.9181 3.3824,-1.4678 2.2817,-1.0626 4.633,-2.1445 6.3072,-3.3342 1.0487,-0.7452 1.883,-1.2505 2.1677,-2.1765 0.0393,-0.1277 0.0758,-0.3174 0.002,-0.5487 -0.0764,-0.2402 -0.2819,-0.437 -0.4517,-0.5198 -0.3036,-0.1479 -0.4724,-0.1065 -0.6226,-0.0954 -0.2936,0.0216 -0.5974,0.0844 -0.9897,0.141 -0.6889,0.0995 -1.5526,0.2878 -2.575,0.56 -2.539,0.6759 -5.8873,1.7168 -9.3447,3.0464 -2.7318,1.0505 -5.4077,2.2179 -7.6743,3.2408 -2.168,0.9783 -3.8396,1.775 -4.6026,2.0984 -0.0354,0.015 -0.0607,0.0249 -0.0696,0.0281 -0.005,0.002 0.1983,-0.0366 0.098,-0.022 -0.0308,0.005 0.2041,-0.005 0.1375,-0.007 -0.0545,-0.002 0.336,0.0812 0.232,0.0444 -0.0837,-0.0296 0.3924,0.2812 0.2911,0.1817 -0.0783,-0.0769 0.229,0.4007 0.1881,0.2905 -0.0603,-0.1626 0.0141,0.5349 0.0352,0.4261 0.0196,-0.1019 -0.1038,0.2693 -0.0774,0.2194 0.0386,-0.0727 -0.1176,0.1663 -0.094,0.1386 0.0606,-0.071 -0.095,0.0916 -0.0873,0.0856 2e-4,-2e-4 0.1868,-0.1228 0.4399,-0.2742 0.4173,-0.2496 0.9905,-0.5944 1.6745,-0.9706 0.9336,-0.5134 2.0469,-1.1037 3.1813,-1.7819 2.7749,-1.659 5.5199,-3.4161 7.1146,-4.8778 0.5275,-0.4834 0.893,-0.9086 1.1141,-1.3524 0.2167,-0.435 0.2612,-0.9165 0.1832,-1.2944 m -3.6335,8.0255 c -0.4368,0.0542 -0.7468,0.4523 -0.6926,0.889 0.0543,0.4367 0.4523,0.7468 0.889,0.6926 0.1995,-0.0248 0.1555,-0.0346 0.1792,-0.0425 0.0313,-0.0104 0.0647,-0.0222 0.107,-0.0374 0.0902,-0.0324 0.2154,-0.0785 0.3792,-0.1395 1.018,-0.3789 2.838,-1.0673 5.0777,-1.8613 1.0939,-0.3878 2.2955,-0.7834 3.5826,-1.2154 2.2892,-0.7683 4.7472,-1.6067 7.0573,-2.3734 1.4148,-0.4696 2.7495,-0.9132 3.9007,-1.2906 1.3438,-0.4406 2.3397,-0.7646 2.9364,-0.9477 0.3035,-0.0932 0.5063,-0.1683 0.5829,-0.1968 0.0111,-0.004 -0.1054,0.0309 -0.0335,0.0103 0.4231,-0.1215 0.6675,-0.5628 0.5461,-0.9859 -0.1214,-0.423 -0.5628,-0.6675 -0.9858,-0.546 -0.0789,0.0226 -0.0676,0.0223 -0.0818,0.0276 -0.0734,0.0273 -0.2306,0.0859 -0.4955,0.1672 -0.6214,0.1907 -1.619,0.5154 -2.9654,0.9569 -1.1555,0.3788 -2.4915,0.8228 -3.9062,1.2924 -2.3182,0.7694 -4.7777,1.6083 -7.0623,2.3751 -1.283,0.4306 -2.4914,0.8283 -3.608,1.2242 -2.2564,0.7999 -4.0899,1.4934 -5.1011,1.8697 -0.1608,0.0599 -0.2823,0.1046 -0.3623,0.1334 -0.0363,0.013 -0.0625,0.0221 -0.0719,0.0253 -0.002,7e-4 0.0144,-0.004 0.006,-0.002 -0.0101,0.003 0.236,-0.0394 0.1219,-0.0252 m 24.1424,-6.5867 c 0.3819,-0.2188 0.5141,-0.7057 0.2953,-1.0876 -0.2188,-0.3819 -0.7057,-0.5141 -1.0875,-0.2953 -0.0584,0.0335 0.0418,-0.0222 0.0348,-0.0188 -0.0272,0.013 -0.0925,0.0438 -0.1833,0.0889 -0.7155,0.3554 -2.13,1.0782 -3.8398,1.9633 -1.7644,0.9133 -3.7182,1.9353 -5.4459,2.8619 -1.2091,0.6484 -2.2699,1.2182 -3.0302,1.6874 -0.4377,0.2702 -0.7762,0.4136 -1.0033,0.9443 -0.0662,0.1547 -0.1251,0.408 -0.0181,0.6839 0.1084,0.2795 0.3528,0.4465 0.5282,0.5109 0.3158,0.1162 0.5177,0.0719 0.7335,0.0362 0.8069,-0.1333 1.8686,-0.5417 3.236,-1.0754 1.4284,-0.5574 3.1069,-1.2444 4.9329,-1.9481 1.4659,-0.5649 3.0201,-1.1333 4.5366,-1.6917 2.1101,-0.7771 4.0908,-1.4873 5.8233,-2.0768 1.6713,-0.5686 3.0656,-1.0104 4.0424,-1.2578 0.2985,-0.0756 0.5446,-0.1338 0.722,-0.1661 0.0824,-0.015 0.1461,-0.0233 0.1819,-0.0259 0.029,-0.002 -0.1,-0.0216 -0.0365,-0.009 0.0417,0.009 -0.212,-0.0814 -0.1527,-0.0525 0.0617,0.0302 -0.2553,-0.2032 -0.1929,-0.1395 0.0629,0.0643 -0.1857,-0.3137 -0.1515,-0.2302 0.0336,0.0821 -0.0553,-0.2983 -0.0518,-0.2304 0.006,0.1275 0.0541,-0.2929 0.037,-0.2489 -0.0148,0.0381 0.0239,-0.05 0.0233,-0.0491 -0.0203,0.0307 -0.1712,0.1971 -0.4175,0.3876 -0.9794,0.7571 -2.842,1.7444 -4.622,2.7553 -1.4005,0.7953 -2.6656,1.5417 -3.5541,2.0885 -0.4122,0.2537 -0.7086,0.4487 -0.9381,0.6687 -0.0591,0.0567 -0.1216,0.1162 -0.195,0.2361 -0.0829,0.1355 -0.2718,0.525 0.0304,0.9347 0.2893,0.3927 0.5998,0.343 0.7358,0.3359 0.1231,-0.006 0.2054,-0.0277 0.2868,-0.0502 0.4798,-0.1323 1.1307,-0.3992 1.9856,-0.7578 2.8053,-1.1769 7.0356,-3.0979 11.0319,-4.5237 1.992,-0.7107 3.8617,-1.2594 5.331,-1.6428 0.7945,-0.2073 1.421,-0.3484 1.8012,-0.3816 0.111,-0.01 0.1318,-0.008 0.1505,-0.003 0.016,0.004 -0.1554,-0.088 -0.1044,-0.0525 0.055,0.0385 -0.2101,-0.2736 -0.1652,-0.1889 0.0451,0.0848 -0.0652,-0.3194 -0.0645,-0.2488 5e-4,0.0658 0.0254,-0.1479 0.0184,-0.1279 -0.01,0.0273 -0.008,0.0179 -0.0704,0.091 -0.5938,0.6931 -2.5252,1.773 -4.2523,2.8175 -0.9368,0.5666 -1.7773,1.0873 -2.4081,1.517 -0.3892,0.2651 -0.6849,0.4746 -0.9146,0.8091 -0.0614,0.0893 -0.1278,0.1981 -0.1671,0.3698 -0.0423,0.1845 -0.0265,0.4797 0.138,0.7102 0.1604,0.2251 0.3779,0.3146 0.5311,0.3517 0.144,0.0348 0.2586,0.0347 0.3645,0.0288 1.0318,-0.0583 2.2606,-0.682 3.843,-1.3068 0.9734,-0.3844 2.0246,-0.8148 3.1046,-1.2645 4.5225,-1.8832 9.3097,-4.2358 15.7147,-6.2504 2.544,-0.8002 5.3564,-1.5656 8.5566,-2.2921 3.3105,-0.7516 6.9925,-1.5018 11.0685,-2.0887 3.5595,-0.5126 7.3255,-0.8969 10.8339,-1.1153 2.5401,-0.1582 4.8996,-0.1914 6.8876,-0.0717 1.8627,0.1122 3.3162,0.2788 4.0908,0.6908 0.4736,0.252 0.708,0.58 0.7884,1.0454 0.086,0.4981 -0.0322,1.2089 -0.4269,2.0567 -0.427,0.9172 -1.208,1.9833 -2.2768,3.1632 -1.1106,1.226 -2.5128,2.5594 -4.1493,4.0055 -1.7572,1.5526 -3.7537,3.2116 -5.9638,4.9171 -1.0594,0.8174 -2.174,1.6491 -3.3429,2.4971 -1.3064,0.9477 -2.7299,1.8478 -4.1724,2.7972 -1.2307,0.8099 -2.3704,1.6752 -3.4853,2.4601 -1.4642,1.0309 -3.0678,1.9812 -4.6817,2.9973 -5.8522,3.6847 -11.9296,7.3346 -17.8631,10.4167 -1.3744,0.7139 -2.7233,1.3759 -4.0396,1.9868 -1.6215,0.7525 -3.1954,1.4947 -4.7124,2.1663 -1.235,0.5468 -2.3637,1.0386 -3.3663,1.4446 -2.3887,0.9673 -4.5885,1.6897 -6.4957,2.2141 -1.6907,0.4648 -3.073,0.7088 -4.0708,0.7151 -1.9495,0.0124 -3.3968,-0.002 -4.1901,-0.3939 -0.8518,-0.4204 -1.2551,-0.9329 -1.2936,-1.7618 -0.0472,-1.0179 0.2777,-2.3841 1.2768,-4.031 0.9294,-1.5322 2.4164,-3.2291 4.3125,-5.0685 1.9589,-1.9003 4.3271,-3.9285 6.9865,-6.0963 5.1348,-4.1857 10.9794,-8.3913 16.45,-12.2834 4.2527,-3.0256 8.1768,-5.7557 11.2916,-8.1227 2.862,-2.1747 4.9458,-3.9987 6.3481,-5.359 0.9143,-0.8868 1.5235,-1.4537 1.7692,-2.183 0.0815,-0.2419 0.1374,-0.5281 0.0394,-0.8517 -0.1013,-0.3345 -0.4045,-0.6134 -0.6909,-0.7204 -0.5413,-0.2023 -1.0363,-0.0889 -1.636,0.0717 -1.4508,0.3888 -3.3035,1.3234 -5.5052,2.515 -1.7941,0.9709 -3.681,2.1722 -5.5791,3.3892 -3.1223,2.0018 -6.1515,4.0474 -8.441,5.8049 -1.21,0.9288 -2.1043,1.7606 -2.7195,2.438 -0.386,0.4251 -0.6936,0.7491 -0.8917,1.167 -0.1034,0.2181 -0.2067,0.5433 -0.0656,0.9114 0.1428,0.3728 0.4744,0.5634 0.7225,0.6439 0.6373,0.2066 1.5413,0.2233 2.8318,-0.006 1.4698,-0.2611 3.238,-0.9012 5.4082,-1.6269 0.6349,-0.2123 1.3286,-0.4282 2.0742,-0.6787 2.7614,-0.9279 5.9117,-2.0513 9.2445,-3.2612 3.166,-1.1495 6.386,-2.3808 9.4645,-3.6096 1.1494,-0.4587 2.3472,-0.9252 3.5945,-1.4216 2.138,-0.8508 4.186,-1.6715 6.0754,-2.4119 3.4297,-1.344 6.2055,-2.2909 8.0906,-2.7821 0.8758,-0.2282 1.5296,-0.3342 1.8025,-0.3209 0.0525,0.003 0.0346,-0.003 0.0544,0.004 0.0135,0.004 -0.1047,-0.0544 -0.0714,-0.0341 0.0358,0.0218 -0.1635,-0.1529 -0.1217,-0.1044 0.0869,0.1009 -0.1379,-0.4461 -0.1361,-0.3485 0.001,0.0863 0.0161,-0.1172 0.0123,-0.1082 -0.212,0.5006 -1.8952,2.0135 -4.5222,3.9038 -1.1614,0.8356 -2.3879,1.7117 -3.5939,2.5755 -1.3947,0.9989 -2.8362,2.0233 -4.2663,3.0125 -2.6432,1.8285 -5.148,3.4718 -7.0488,4.9046 -1.6126,1.2156 -2.7191,2.1141 -2.8869,3.311 -0.0508,0.3625 -0.0402,0.851 0.274,1.2525 0.3141,0.4014 0.783,0.5691 1.2896,0.66 1.0367,0.186 2.3733,0.142 4.0162,-0.0481 1.7133,-0.1982 3.7267,-0.5644 6.0035,-1.0811 1.9237,-0.4365 3.9787,-1.0213 6.1351,-1.6781 3.0105,-0.9169 6.0555,-1.9058 8.9175,-2.892 3.754,-1.2935 7.0686,-2.515 9.4829,-3.3967 1.0721,-0.3915 1.9168,-0.6877 2.4929,-0.8774 0.2646,-0.0872 0.4619,-0.1478 0.5657,-0.1753 0.0426,-0.0113 -0.1276,0.004 -0.0247,-0.002 0.0344,-0.002 -0.3166,-0.0386 -0.2005,-0.0146 0.0486,0.0101 -0.2717,-0.1064 -0.1914,-0.0664 0.0748,0.0374 -0.3395,-0.3026 -0.2535,-0.2 0.078,0.093 -0.196,-0.4806 -0.1692,-0.3503 0.0231,0.1126 0.0141,-0.3944 -0.002,-0.3071 -0.0274,0.1447 0.1617,-0.3552 0.1207,-0.2944 -0.0558,0.083 0.1591,-0.1738 0.1287,-0.147 -0.0278,0.0245 0.0761,-0.0589 0.0616,-0.0487 -0.0409,0.0287 -1.7994,0.818 -4.9636,2.0774 -2.4058,0.9575 -5.4154,2.001 -8.7376,3.0739 -3.396,1.0966 -7.0463,2.1574 -10.6727,3.0365 -3.6519,0.8853 -7.2702,1.4492 -10.4841,1.7821 -1.9503,0.202 -3.676,0.256 -5.0878,0.1669 -0.9835,-0.062 -1.8791,-0.0443 -2.6376,-0.1331 -1.1802,-0.1383 -2.032,-0.584 -2.5458,-1.2123 -0.5104,-0.624 -0.7509,-1.5017 -0.6303,-2.5921 0.1363,-1.2329 0.5394,-2.7256 1.5006,-4.4477 1.079,-1.9331 2.8471,-4.0932 5.1169,-6.5313 1.0527,-1.1307 2.126,-2.2887 3.2608,-3.3975 0.3148,-0.3075 0.3207,-0.8121 0.0131,-1.1268 -0.3076,-0.3148 -0.8121,-0.3207 -1.1269,-0.0131 -1.1702,1.1434 -2.2606,2.3205 -3.3135,3.4514 -2.3127,2.4843 -4.1575,4.7184 -5.342,6.8405 -1.0627,1.9038 -1.535,3.6196 -1.6931,5.0494 -0.1581,1.4299 0.1681,2.7827 0.9807,3.7762 0.8146,0.9961 2.0942,1.6105 3.5941,1.7862 0.9022,0.1057 1.814,0.0835 2.7226,0.1408 1.5274,0.0964 3.3325,0.037 5.3524,-0.1722 3.2761,-0.3394 6.9605,-0.9131 10.6954,-1.8185 3.6729,-0.8905 7.3585,-1.9617 10.7869,-3.0688 3.3437,-1.0798 6.38,-2.1318 8.8372,-3.1097 1.6338,-0.6503 2.8752,-1.1594 3.7611,-1.537 0.8099,-0.3453 1.2075,-0.4912 1.5289,-0.7168 0.0322,-0.0226 0.0736,-0.0503 0.1386,-0.1206 0.0549,-0.0595 0.151,-0.1494 0.199,-0.3889 0.0399,-0.1992 -0.0259,-0.5065 -0.1839,-0.6859 -0.4089,-0.4645 -0.5879,-0.276 -0.6664,-0.271 -0.1513,0.01 -0.2014,0.0312 -0.2804,0.0521 -0.1639,0.0435 -0.3766,0.1101 -0.656,0.2022 -0.6021,0.1982 -1.4583,0.4987 -2.5412,0.8942 -2.4167,0.8825 -5.7197,2.0997 -9.4554,3.3869 -2.8431,0.9797 -5.8712,1.9631 -8.8627,2.8742 -2.1365,0.6507 -4.1578,1.2252 -6.0234,1.6485 -2.2352,0.5072 -4.1982,0.8628 -5.834,1.0521 -1.558,0.1803 -2.7844,0.2002 -3.5516,0.0626 -0.3076,-0.0552 -0.2711,-0.0163 -0.3159,-0.0735 -0.026,-0.0333 0.0416,0.0889 0.0408,0.084 -6e-4,-0.004 -0.003,-0.0506 0.008,-0.1331 0.0196,-0.1396 0.7581,-1.1214 2.2679,-2.2595 1.8374,-1.385 4.3371,-3.0272 6.9962,-4.8666 1.4409,-0.9967 2.8892,-2.0259 4.2876,-3.0275 1.2051,-0.8631 2.4324,-1.7398 3.5967,-2.5775 1.362,-0.9801 2.4888,-1.8414 3.3542,-2.5992 0.8218,-0.7195 1.4172,-1.2977 1.7048,-1.9767 0.0649,-0.1533 0.1174,-0.3298 0.1136,-0.5425 -0.004,-0.2201 -0.0902,-0.4771 -0.2497,-0.6622 -0.3077,-0.3575 -0.6823,-0.4022 -0.9915,-0.4172 -0.6205,-0.0302 -1.3434,0.1259 -2.2818,0.3704 -1.9883,0.5181 -4.8024,1.4816 -8.2703,2.8405 -1.897,0.7434 -3.947,1.5649 -6.0831,2.415 -1.2412,0.4939 -2.4391,0.9604 -3.5961,1.4222 -3.0635,1.2228 -6.2689,2.4485 -9.4176,3.5917 -3.3266,1.2077 -6.467,2.3274 -9.2082,3.2485 -0.7264,0.2441 -1.417,0.459 -2.072,0.678 -2.1786,0.7285 -3.924,1.3458 -5.1816,1.5693 -1.1239,0.1997 -1.8276,0.1349 -2.0615,0.0591 -0.002,-8e-4 0.1464,0.0951 0.0909,0.0527 -0.0619,-0.0473 0.226,0.3608 0.1834,0.2494 -0.0422,-0.11 0.024,0.3379 0.0332,0.2763 0.008,-0.0538 -0.0186,0.0711 -0.0158,0.0651 0.0339,-0.0714 0.269,-0.3791 0.6314,-0.7782 0.5387,-0.5931 1.3667,-1.3676 2.5101,-2.2453 2.2282,-1.7104 5.2322,-3.7408 8.3308,-5.7274 1.8917,-1.2129 3.7521,-2.3955 5.4775,-3.3293 2.1654,-1.1719 3.9841,-2.0623 5.1591,-2.3771 0.2378,-0.0637 0.4286,-0.0985 0.558,-0.1089 0.1145,-0.009 0.0564,-0.0285 0.1077,-0.009 0.0337,0.0125 -0.2056,-0.1553 -0.1485,-0.0987 0.0591,0.0586 -0.1497,-0.2831 -0.1281,-0.2118 0.0204,0.0672 -0.0156,-0.1589 -0.0175,-0.1373 -0.001,0.0161 0.002,-0.008 -0.007,0.018 -0.027,0.0802 -0.4986,0.7041 -1.3685,1.548 -1.3501,1.3096 -3.3875,3.0948 -6.2027,5.234 -3.0753,2.3368 -6.9926,5.0631 -11.2513,8.093 -5.4782,3.8975 -11.3473,8.1193 -16.5331,12.3466 -2.6794,2.1842 -5.0792,4.2379 -7.0892,6.1877 -1.9529,1.8945 -3.525,3.6707 -4.5655,5.3859 -1.1277,1.8592 -1.5706,3.5401 -1.5061,4.9314 0.0649,1.401 0.9706,2.5202 2.1803,3.1172 1.3197,0.6513 2.9484,0.5708 4.9055,0.5584 1.2213,-0.008 2.7115,-0.285 4.4832,-0.7721 1.9652,-0.5403 4.2225,-1.2819 6.6714,-2.2736 1.0302,-0.4171 2.172,-0.915 3.4133,-1.4645 1.5395,-0.6816 3.121,-1.4274 4.7381,-2.1779 1.3379,-0.6209 2.708,-1.2933 4.1034,-2.0182 5.9928,-3.1129 12.104,-6.7842 17.9776,-10.4823 1.5943,-1.0038 3.2206,-1.9659 4.7501,-3.0428 1.1421,-0.8042 2.2675,-1.6578 3.4438,-2.432 1.4301,-0.9412 2.873,-1.8524 4.2321,-2.8385 1.1803,-0.8562 2.3074,-1.6972 3.3807,-2.5254 2.2386,-1.7274 4.2618,-3.4085 6.0454,-4.9845 3.2896,-2.9066 5.7377,-5.3748 6.8157,-7.6903 0.4889,-1.05 0.7133,-2.0708 0.5526,-3.0008 -0.1594,-0.9222 -0.7601,-1.7287 -1.6105,-2.181 -1.2273,-0.6529 -2.8376,-0.7598 -4.7433,-0.8747 -2.0769,-0.1251 -4.4929,-0.0894 -7.0826,0.0719 -3.5533,0.2213 -7.3568,0.6094 -10.9619,1.1285 -4.1308,0.5949 -7.8569,1.3543 -11.1942,2.112 -3.24,0.7355 -6.0955,1.5124 -8.682,2.326 -3.3011,1.0383 -6.1756,2.1562 -8.776,3.2494 -2.5499,1.0719 -4.8531,2.1256 -7.0731,3.05 -1.0739,0.4472 -2.1168,0.8741 -3.0774,1.2534 -1.5998,0.6317 -2.9637,1.1763 -3.3475,1.1979 -0.001,10e-5 0.1751,0.0315 0.0999,0.0134 -0.0423,-0.0103 0.2366,0.1074 0.168,0.0679 -0.0724,-0.0418 0.2919,0.2994 0.2241,0.2043 -0.0693,-0.0971 0.1427,0.4261 0.1278,0.3202 -0.0143,-0.1022 -0.0245,0.3139 -0.01,0.2507 0.0263,-0.1151 -0.0852,0.1948 -0.0727,0.1766 0.0147,-0.0214 0.1838,-0.1802 0.4981,-0.3942 0.5845,-0.3981 1.41,-0.9106 2.3357,-1.4704 1.6945,-1.0249 3.6421,-1.9823 4.6378,-3.1443 0.1518,-0.1773 0.2818,-0.3655 0.3646,-0.6021 0.0853,-0.2442 0.1133,-0.5875 -0.0507,-0.8965 -0.1638,-0.3086 -0.4592,-0.4763 -0.7086,-0.5461 -0.2426,-0.0679 -0.4763,-0.0716 -0.7187,-0.0504 -0.5708,0.0498 -1.2425,0.2126 -2.0649,0.4272 -1.5092,0.3938 -3.4195,0.9543 -5.4641,1.6838 -2.711,0.9672 -5.5314,2.1607 -7.9765,3.2112 -2.3477,1.0086 -4.2282,1.8417 -4.9293,2.0351 -0.0155,0.004 0.1188,-0.009 0.054,-0.005 -0.0386,0.002 0.2981,0.0446 0.1981,0.0199 -0.054,-0.0133 0.271,0.1223 0.1958,0.079 -0.0786,-0.0453 0.3069,0.3072 0.2362,0.2113 -0.0717,-0.0972 0.1586,0.4313 0.1391,0.3228 -0.0283,-0.1567 -0.0477,0.4448 -0.0219,0.3619 0.0239,-0.0766 -0.0914,0.1912 -0.0709,0.1576 0.0471,-0.077 -0.0646,0.0856 -0.0617,0.0829 0.0473,-0.0453 0.3039,-0.2362 0.6706,-0.4619 0.8658,-0.5329 2.1199,-1.2729 3.5057,-2.0599 1.7602,-0.9997 3.629,-1.9675 4.8098,-2.8804 0.33,-0.2551 0.5837,-0.4846 0.7717,-0.7687 0.0969,-0.1464 0.2196,-0.3234 0.2023,-0.6626 -0.009,-0.1837 -0.0934,-0.4139 -0.2495,-0.5735 -0.1532,-0.1564 -0.3325,-0.2254 -0.4728,-0.2542 -0.5842,-0.1199 -0.9631,0.0609 -1.5791,0.2169 -1.0555,0.2672 -2.4731,0.7185 -4.1645,1.2939 -1.7505,0.5957 -3.742,1.3098 -5.8606,2.09 -1.5152,0.558 -3.0762,1.1287 -4.559,1.7001 -1.8434,0.7105 -3.5276,1.3997 -4.9392,1.9506 -1.3443,0.5247 -2.405,0.9032 -2.9165,0.9877 -0.0458,0.008 -0.071,0.009 -0.0721,0.009 -0.008,0 0.2471,0.0678 0.1485,0.0316 -0.055,-0.0202 0.28,0.1854 0.2035,0.1201 -0.08,-0.0682 0.2497,0.4057 0.2042,0.2884 -0.0451,-0.1162 0.0371,0.4175 0.0458,0.3259 0.008,-0.0868 -0.0673,0.2378 -0.0484,0.1936 0.0336,-0.0785 -0.0594,0.1024 -0.0581,0.1008 0.0185,-0.021 0.1787,-0.1587 0.4332,-0.3158 0.6923,-0.4273 1.7416,-0.9931 2.9464,-1.6392 1.7172,-0.9209 3.6658,-1.9402 5.4253,-2.851 1.7051,-0.8826 3.1195,-1.6053 3.8163,-1.9514 0.0777,-0.0386 0.127,-0.0618 0.1607,-0.0779 0.0117,-0.006 0.007,-2e-4 0.0709,-0.0366"/></g></g></g></svg>